<svg width="168" height="187" viewBox="0 0 168 187" fill="none" xmlns="http://www.w3.org/2000/svg">
<rect width="168" height="187" fill="#D5B4DD"/>
<g filter="url(#filter0_d_32_64)">
<path d="M29 16H23V10H21V16H15V18H21V24H23V18H29V16Z" fill="black"/>
</g>
<g filter="url(#filter1_d_32_64)">
<path d="M43.9716 11.0909V22H42.6932L36.7486 13.4347H36.642V22H35.321V11.0909H36.5994L42.5653 19.6776H42.6719V11.0909H43.9716ZM49.7684 22.1705C49.0297 22.1705 48.3817 21.9947 47.8241 21.6431C47.2702 21.2915 46.8369 20.7997 46.5244 20.1676C46.2155 19.5355 46.061 18.7969 46.061 17.9517C46.061 17.0994 46.2155 16.3555 46.5244 15.7198C46.8369 15.0842 47.2702 14.5906 47.8241 14.239C48.3817 13.8874 49.0297 13.7116 49.7684 13.7116C50.507 13.7116 51.1533 13.8874 51.7073 14.239C52.2648 14.5906 52.6981 15.0842 53.007 15.7198C53.3195 16.3555 53.4758 17.0994 53.4758 17.9517C53.4758 18.7969 53.3195 19.5355 53.007 20.1676C52.6981 20.7997 52.2648 21.2915 51.7073 21.6431C51.1533 21.9947 50.507 22.1705 49.7684 22.1705ZM49.7684 21.0412C50.3295 21.0412 50.7911 20.8974 51.1533 20.6097C51.5155 20.3221 51.7836 19.9439 51.9577 19.4751C52.1317 19.0064 52.2187 18.4986 52.2187 17.9517C52.2187 17.4048 52.1317 16.8952 51.9577 16.4229C51.7836 15.9506 51.5155 15.5689 51.1533 15.2777C50.7911 14.9865 50.3295 14.8409 49.7684 14.8409C49.2073 14.8409 48.7456 14.9865 48.3834 15.2777C48.0212 15.5689 47.7531 15.9506 47.5791 16.4229C47.4051 16.8952 47.3181 17.4048 47.3181 17.9517C47.3181 18.4986 47.4051 19.0064 47.5791 19.4751C47.7531 19.9439 48.0212 20.3221 48.3834 20.6097C48.7456 20.8974 49.2073 21.0412 49.7684 21.0412ZM61.7921 13.8182L58.7665 22H57.4881L54.4625 13.8182H55.8262L58.0847 20.3381H58.1699L60.4284 13.8182H61.7921ZM66.4822 22.1705C65.7436 22.1705 65.0955 21.9947 64.538 21.6431C63.984 21.2915 63.5508 20.7997 63.2383 20.1676C62.9293 19.5355 62.7749 18.7969 62.7749 17.9517C62.7749 17.0994 62.9293 16.3555 63.2383 15.7198C63.5508 15.0842 63.984 14.5906 64.538 14.239C65.0955 13.8874 65.7436 13.7116 66.4822 13.7116C67.2209 13.7116 67.8672 13.8874 68.4212 14.239C68.9787 14.5906 69.4119 15.0842 69.7209 15.7198C70.0334 16.3555 70.1896 17.0994 70.1896 17.9517C70.1896 18.7969 70.0334 19.5355 69.7209 20.1676C69.4119 20.7997 68.9787 21.2915 68.4212 21.6431C67.8672 21.9947 67.2209 22.1705 66.4822 22.1705ZM66.4822 21.0412C67.0433 21.0412 67.505 20.8974 67.8672 20.6097C68.2294 20.3221 68.4975 19.9439 68.6715 19.4751C68.8455 19.0064 68.9325 18.4986 68.9325 17.9517C68.9325 17.4048 68.8455 16.8952 68.6715 16.4229C68.4975 15.9506 68.2294 15.5689 67.8672 15.2777C67.505 14.9865 67.0433 14.8409 66.4822 14.8409C65.9212 14.8409 65.4595 14.9865 65.0973 15.2777C64.7351 15.5689 64.467 15.9506 64.293 16.4229C64.119 16.8952 64.032 17.4048 64.032 17.9517C64.032 18.4986 64.119 19.0064 64.293 19.4751C64.467 19.9439 64.7351 20.3221 65.0973 20.6097C65.4595 20.8974 65.9212 21.0412 66.4822 21.0412Z" fill="black"/>
</g>
<path d="M9.32102 57V46.0909H10.642V55.8281H15.7131V57H9.32102ZM20.9119 57.1705C20.1733 57.1705 19.5252 56.9947 18.9677 56.6431C18.4137 56.2915 17.9805 55.7997 17.668 55.1676C17.359 54.5355 17.2045 53.7969 17.2045 52.9517C17.2045 52.0994 17.359 51.3555 17.668 50.7198C17.9805 50.0842 18.4137 49.5906 18.9677 49.239C19.5252 48.8874 20.1733 48.7116 20.9119 48.7116C21.6506 48.7116 22.2969 48.8874 22.8509 49.239C23.4084 49.5906 23.8416 50.0842 24.1506 50.7198C24.4631 51.3555 24.6193 52.0994 24.6193 52.9517C24.6193 53.7969 24.4631 54.5355 24.1506 55.1676C23.8416 55.7997 23.4084 56.2915 22.8509 56.6431C22.2969 56.9947 21.6506 57.1705 20.9119 57.1705ZM20.9119 56.0412C21.473 56.0412 21.9347 55.8974 22.2969 55.6097C22.6591 55.3221 22.9272 54.9439 23.1012 54.4751C23.2752 54.0064 23.3622 53.4986 23.3622 52.9517C23.3622 52.4048 23.2752 51.8952 23.1012 51.4229C22.9272 50.9506 22.6591 50.5689 22.2969 50.2777C21.9347 49.9865 21.473 49.8409 20.9119 49.8409C20.3509 49.8409 19.8892 49.9865 19.527 50.2777C19.1648 50.5689 18.8967 50.9506 18.7227 51.4229C18.5487 51.8952 18.4616 52.4048 18.4616 52.9517C18.4616 53.4986 18.5487 54.0064 18.7227 54.4751C18.8967 54.9439 19.1648 55.3221 19.527 55.6097C19.8892 55.8974 20.3509 56.0412 20.9119 56.0412ZM26.5383 57V48.8182H27.7528V50.054H27.838C27.9871 49.6491 28.257 49.3207 28.6476 49.0685C29.0383 48.8164 29.4786 48.6903 29.9687 48.6903C30.061 48.6903 30.1764 48.6921 30.3149 48.6957C30.4534 48.6992 30.5582 48.7045 30.6292 48.7116V49.9901C30.5866 49.9794 30.4889 49.9634 30.3362 49.9421C30.1871 49.9173 30.029 49.9048 29.8621 49.9048C29.4644 49.9048 29.1093 49.9883 28.7968 50.1552C28.4878 50.3185 28.2428 50.5458 28.0617 50.837C27.8841 51.1246 27.7954 51.4531 27.7954 51.8224V57H26.5383ZM35.3007 57.1705C34.5123 57.1705 33.8323 56.9964 33.2606 56.6484C32.6924 56.2969 32.2538 55.8068 31.9449 55.1783C31.6395 54.5462 31.4868 53.8111 31.4868 52.973C31.4868 52.1349 31.6395 51.3963 31.9449 50.7571C32.2538 50.1143 32.6835 49.6136 33.2339 49.255C33.7879 48.8928 34.4342 48.7116 35.1729 48.7116C35.599 48.7116 36.0198 48.7827 36.4353 48.9247C36.8508 49.0668 37.229 49.2976 37.5699 49.6172C37.9108 49.9332 38.1824 50.3523 38.3849 50.8743C38.5873 51.3963 38.6885 52.0391 38.6885 52.8026V53.3352H32.3817V52.2486H37.4101C37.4101 51.7869 37.3177 51.375 37.1331 51.0128C36.952 50.6506 36.6927 50.3647 36.3554 50.1552C36.0216 49.9457 35.6274 49.8409 35.1729 49.8409C34.6721 49.8409 34.2389 49.9652 33.8731 50.2138C33.5109 50.4588 33.2322 50.7784 33.0368 51.1726C32.8415 51.5668 32.7439 51.9893 32.7439 52.4403V53.1648C32.7439 53.7827 32.8504 54.3065 33.0635 54.7362C33.2801 55.1623 33.5802 55.4872 33.9637 55.7109C34.3472 55.9311 34.7929 56.0412 35.3007 56.0412C35.6309 56.0412 35.9292 55.995 36.1956 55.9027C36.4655 55.8068 36.6981 55.6648 36.8934 55.4766C37.0887 55.2848 37.2396 55.0469 37.3461 54.7628L38.5606 55.1037C38.4328 55.5156 38.218 55.8778 37.9161 56.1903C37.6143 56.4993 37.2414 56.7408 36.7975 56.9148C36.3536 57.0852 35.8547 57.1705 35.3007 57.1705ZM40.6008 57V48.8182H41.8153V50.0966H41.9218C42.0922 49.6598 42.3675 49.3207 42.7474 49.0792C43.1274 48.8342 43.5837 48.7116 44.1164 48.7116C44.6562 48.7116 45.1054 48.8342 45.464 49.0792C45.8263 49.3207 46.1086 49.6598 46.311 50.0966H46.3962C46.6057 49.674 46.92 49.3384 47.339 49.0898C47.7581 48.8377 48.2606 48.7116 48.8465 48.7116C49.578 48.7116 50.1764 48.9407 50.6416 49.3988C51.1068 49.8533 51.3394 50.5618 51.3394 51.5241V57H50.0823V51.5241C50.0823 50.9205 49.9172 50.489 49.5869 50.2298C49.2567 49.9705 48.8678 49.8409 48.4204 49.8409C47.8451 49.8409 47.3994 50.0149 47.0834 50.3629C46.7673 50.7074 46.6093 51.1442 46.6093 51.6733V57H45.3309V51.3963C45.3309 50.9311 45.18 50.5565 44.8781 50.2724C44.5763 49.9847 44.1874 49.8409 43.7116 49.8409C43.3849 49.8409 43.0795 49.9279 42.7954 50.1019C42.5148 50.2759 42.2876 50.5174 42.1135 50.8263C41.9431 51.1317 41.8579 51.4851 41.8579 51.8864V57H40.6008ZM55.5129 55.5085L55.4276 56.0838C55.3673 56.4886 55.2749 56.9219 55.1507 57.3835C55.0299 57.8452 54.9039 58.2802 54.7725 58.6886C54.6411 59.0969 54.5328 59.4219 54.4475 59.6634H53.4887C53.5349 59.4361 53.5953 59.136 53.6698 58.7631C53.7444 58.3903 53.819 57.973 53.8936 57.5114C53.9717 57.0533 54.0356 56.5845 54.0853 56.1051L54.1492 55.5085H55.5129ZM62.0607 57V48.8182H63.3178V57H62.0607ZM62.6999 47.4545C62.4549 47.4545 62.2436 47.3711 62.0661 47.2042C61.892 47.0373 61.805 46.8366 61.805 46.6023C61.805 46.3679 61.892 46.1673 62.0661 46.0004C62.2436 45.8335 62.4549 45.75 62.6999 45.75C62.945 45.75 63.1545 45.8335 63.3285 46.0004C63.506 46.1673 63.5948 46.3679 63.5948 46.6023C63.5948 46.8366 63.506 47.0373 63.3285 47.2042C63.1545 47.3711 62.945 47.4545 62.6999 47.4545ZM65.6203 60.0682V48.8182H66.8348V50.1179H66.9839C67.0763 49.9759 67.2041 49.7947 67.3675 49.5746C67.5344 49.3509 67.7723 49.152 68.0812 48.978C68.3937 48.8004 68.8163 48.7116 69.349 48.7116C70.0379 48.7116 70.6452 48.8839 71.1707 49.2283C71.6963 49.5728 72.1064 50.0611 72.4012 50.6932C72.6959 51.3253 72.8433 52.071 72.8433 52.9304C72.8433 53.7969 72.6959 54.5479 72.4012 55.1836C72.1064 55.8157 71.6981 56.3058 71.176 56.6538C70.654 56.9982 70.0521 57.1705 69.3703 57.1705C68.8447 57.1705 68.4239 57.0835 68.1079 56.9094C67.7918 56.7319 67.5486 56.5312 67.3781 56.3075C67.2077 56.0803 67.0763 55.892 66.9839 55.7429H66.8774V60.0682H65.6203ZM66.8561 52.9091C66.8561 53.527 66.9466 54.0721 67.1278 54.5444C67.3089 55.0131 67.5734 55.3807 67.9214 55.647C68.2694 55.9098 68.6956 56.0412 69.1998 56.0412C69.7254 56.0412 70.164 55.9027 70.5155 55.6257C70.8706 55.3452 71.137 54.9687 71.3145 54.4964C71.4957 54.0206 71.5862 53.4915 71.5862 52.9091C71.5862 52.3338 71.4974 51.8153 71.3199 51.3537C71.1459 50.8885 70.8813 50.521 70.5262 50.2511C70.1746 49.9776 69.7325 49.8409 69.1998 49.8409C68.6885 49.8409 68.2588 49.9705 67.9108 50.2298C67.5628 50.4854 67.3 50.8441 67.1224 51.3058C66.9449 51.7638 66.8561 52.2983 66.8561 52.9091ZM80.5564 50.6506L79.4271 50.9702C79.3561 50.782 79.2513 50.5991 79.1128 50.4215C78.9779 50.2404 78.7932 50.0913 78.5589 49.9741C78.3245 49.8569 78.0244 49.7983 77.6586 49.7983C77.1579 49.7983 76.7407 49.9137 76.4069 50.1445C76.0766 50.3718 75.9115 50.6612 75.9115 51.0128C75.9115 51.3253 76.0251 51.5721 76.2524 51.7532C76.4797 51.9343 76.8348 52.0852 77.3177 52.206L78.5322 52.5043C79.2638 52.6818 79.8089 52.9535 80.1675 53.3192C80.5262 53.6815 80.7055 54.1484 80.7055 54.7202C80.7055 55.1889 80.5706 55.608 80.3007 55.9773C80.0344 56.3466 79.6615 56.6378 79.1821 56.8509C78.7027 57.0639 78.1452 57.1705 77.5095 57.1705C76.675 57.1705 75.9843 56.9893 75.4374 56.6271C74.8905 56.2649 74.5443 55.7358 74.3987 55.0398L75.5919 54.7415C75.7055 55.1818 75.9204 55.5121 76.2364 55.7322C76.556 55.9524 76.9733 56.0625 77.4882 56.0625C78.0741 56.0625 78.5393 55.9382 78.8838 55.6896C79.2318 55.4375 79.4058 55.1357 79.4058 54.7841C79.4058 54.5 79.3064 54.2621 79.1075 54.0703C78.9086 53.875 78.6032 53.7294 78.1913 53.6335L76.8277 53.3139C76.0784 53.1364 75.528 52.8612 75.1764 52.4883C74.8284 52.1119 74.6544 51.6413 74.6544 51.0767C74.6544 50.6151 74.784 50.2067 75.0432 49.8516C75.306 49.4964 75.6629 49.2177 76.1139 49.0153C76.5684 48.8129 77.0834 48.7116 77.6586 48.7116C78.4683 48.7116 79.104 48.8892 79.5656 49.2443C80.0308 49.5994 80.3611 50.0682 80.5564 50.6506ZM87.7541 53.6548V48.8182H89.0112V57H87.7541V55.6151H87.6689C87.4771 56.0305 87.1788 56.3839 86.774 56.6751C86.3691 56.9627 85.8578 57.1065 85.2399 57.1065C84.7285 57.1065 84.274 56.9947 83.8762 56.771C83.4785 56.5437 83.166 56.2028 82.9387 55.7482C82.7115 55.2901 82.5978 54.7131 82.5978 54.017V48.8182H83.8549V53.9318C83.8549 54.5284 84.0218 55.0043 84.3556 55.3594C84.693 55.7145 85.1227 55.892 85.6447 55.892C85.9572 55.892 86.275 55.8121 86.5982 55.6523C86.9249 55.4925 87.1983 55.2475 87.4185 54.9173C87.6422 54.587 87.7541 54.1662 87.7541 53.6548ZM91.3137 57V48.8182H92.5281V50.0966H92.6347C92.8051 49.6598 93.0803 49.3207 93.4603 49.0792C93.8403 48.8342 94.2966 48.7116 94.8293 48.7116C95.3691 48.7116 95.8183 48.8342 96.1769 49.0792C96.5392 49.3207 96.8215 49.6598 97.0239 50.0966H97.1091C97.3186 49.674 97.6329 49.3384 98.0519 49.0898C98.471 48.8377 98.9735 48.7116 99.5594 48.7116C100.291 48.7116 100.889 48.9407 101.354 49.3988C101.82 49.8533 102.052 50.5618 102.052 51.5241V57H100.795V51.5241C100.795 50.9205 100.63 50.489 100.3 50.2298C99.9695 49.9705 99.5807 49.8409 99.1333 49.8409C98.558 49.8409 98.1123 50.0149 97.7963 50.3629C97.4802 50.7074 97.3222 51.1442 97.3222 51.6733V57H96.0438V51.3963C96.0438 50.9311 95.8928 50.5565 95.591 50.2724C95.2892 49.9847 94.9003 49.8409 94.4244 49.8409C94.0977 49.8409 93.7923 49.9279 93.5083 50.1019C93.2277 50.2759 93.0004 50.5174 92.8264 50.8263C92.656 51.1317 92.5708 51.4851 92.5708 51.8864V57H91.3137ZM12.2401 75.1705C11.5582 75.1705 10.9563 74.9982 10.4343 74.6538C9.91229 74.3058 9.50391 73.8157 9.20916 73.1836C8.91442 72.5479 8.76705 71.7969 8.76705 70.9304C8.76705 70.071 8.91442 69.3253 9.20916 68.6932C9.50391 68.0611 9.91406 67.5728 10.4396 67.2283C10.9652 66.8839 11.5724 66.7116 12.2614 66.7116C12.794 66.7116 13.2148 66.8004 13.5238 66.978C13.8363 67.152 14.0742 67.3509 14.2376 67.5746C14.4045 67.7947 14.5341 67.9759 14.6264 68.1179H14.733V64.0909H15.9901V75H14.7756V73.7429H14.6264C14.5341 73.892 14.4027 74.0803 14.2322 74.3075C14.0618 74.5312 13.8185 74.7319 13.5025 74.9094C13.1864 75.0835 12.7656 75.1705 12.2401 75.1705ZM12.4105 74.0412C12.9148 74.0412 13.3409 73.9098 13.6889 73.647C14.0369 73.3807 14.3015 73.0131 14.4826 72.5444C14.6637 72.0721 14.7543 71.527 14.7543 70.9091C14.7543 70.2983 14.6655 69.7638 14.4879 69.3058C14.3104 68.8441 14.0476 68.4854 13.6996 68.2298C13.3516 67.9705 12.9219 67.8409 12.4105 67.8409C11.8778 67.8409 11.4339 67.9776 11.0788 68.2511C10.7273 68.521 10.4627 68.8885 10.2852 69.3537C10.1112 69.8153 10.0241 70.3338 10.0241 70.9091C10.0241 71.4915 10.1129 72.0206 10.2905 72.4964C10.4716 72.9687 10.7379 73.3452 11.0895 73.6257C11.4446 73.9027 11.8849 74.0412 12.4105 74.0412ZM21.7908 75.1705C21.0522 75.1705 20.4041 74.9947 19.8466 74.6431C19.2926 74.2915 18.8594 73.7997 18.5469 73.1676C18.2379 72.5355 18.0835 71.7969 18.0835 70.9517C18.0835 70.0994 18.2379 69.3555 18.5469 68.7198C18.8594 68.0842 19.2926 67.5906 19.8466 67.239C20.4041 66.8874 21.0522 66.7116 21.7908 66.7116C22.5295 66.7116 23.1758 66.8874 23.7298 67.239C24.2873 67.5906 24.7205 68.0842 25.0295 68.7198C25.342 69.3555 25.4982 70.0994 25.4982 70.9517C25.4982 71.7969 25.342 72.5355 25.0295 73.1676C24.7205 73.7997 24.2873 74.2915 23.7298 74.6431C23.1758 74.9947 22.5295 75.1705 21.7908 75.1705ZM21.7908 74.0412C22.3519 74.0412 22.8136 73.8974 23.1758 73.6097C23.538 73.3221 23.8061 72.9439 23.9801 72.4751C24.1541 72.0064 24.2411 71.4986 24.2411 70.9517C24.2411 70.4048 24.1541 69.8952 23.9801 69.4229C23.8061 68.9506 23.538 68.5689 23.1758 68.2777C22.8136 67.9865 22.3519 67.8409 21.7908 67.8409C21.2298 67.8409 20.7681 67.9865 20.4059 68.2777C20.0437 68.5689 19.7756 68.9506 19.6016 69.4229C19.4276 69.8952 19.3406 70.4048 19.3406 70.9517C19.3406 71.4986 19.4276 72.0064 19.6016 72.4751C19.7756 72.9439 20.0437 73.3221 20.4059 73.6097C20.7681 73.8974 21.2298 74.0412 21.7908 74.0412ZM28.6743 64.0909V75H27.4172V64.0909H28.6743ZM34.3006 75.1705C33.562 75.1705 32.9139 74.9947 32.3564 74.6431C31.8024 74.2915 31.3691 73.7997 31.0566 73.1676C30.7477 72.5355 30.5932 71.7969 30.5932 70.9517C30.5932 70.0994 30.7477 69.3555 31.0566 68.7198C31.3691 68.0842 31.8024 67.5906 32.3564 67.239C32.9139 66.8874 33.562 66.7116 34.3006 66.7116C35.0392 66.7116 35.6855 66.8874 36.2395 67.239C36.7971 67.5906 37.2303 68.0842 37.5392 68.7198C37.8517 69.3555 38.008 70.0994 38.008 70.9517C38.008 71.7969 37.8517 72.5355 37.5392 73.1676C37.2303 73.7997 36.7971 74.2915 36.2395 74.6431C35.6855 74.9947 35.0392 75.1705 34.3006 75.1705ZM34.3006 74.0412C34.8617 74.0412 35.3233 73.8974 35.6855 73.6097C36.0478 73.3221 36.3159 72.9439 36.4899 72.4751C36.6639 72.0064 36.7509 71.4986 36.7509 70.9517C36.7509 70.4048 36.6639 69.8952 36.4899 69.4229C36.3159 68.9506 36.0478 68.5689 35.6855 68.2777C35.3233 67.9865 34.8617 67.8409 34.3006 67.8409C33.7395 67.8409 33.2779 67.9865 32.9157 68.2777C32.5534 68.5689 32.2853 68.9506 32.1113 69.4229C31.9373 69.8952 31.8503 70.4048 31.8503 70.9517C31.8503 71.4986 31.9373 72.0064 32.1113 72.4751C32.2853 72.9439 32.5534 73.3221 32.9157 73.6097C33.2779 73.8974 33.7395 74.0412 34.3006 74.0412ZM39.9269 75V66.8182H41.1414V68.054H41.2267C41.3758 67.6491 41.6457 67.3207 42.0363 67.0685C42.4269 66.8164 42.8673 66.6903 43.3573 66.6903C43.4497 66.6903 43.5651 66.6921 43.7036 66.6957C43.8421 66.6992 43.9468 66.7045 44.0178 66.7116V67.9901C43.9752 67.9794 43.8776 67.9634 43.7249 67.9421C43.5757 67.9173 43.4177 67.9048 43.2508 67.9048C42.8531 67.9048 42.498 67.9883 42.1855 68.1552C41.8765 68.3185 41.6315 68.5458 41.4504 68.837C41.2728 69.1246 41.184 69.4531 41.184 69.8224V75H39.9269ZM55.5222 68.6506L54.3929 68.9702C54.3219 68.782 54.2172 68.5991 54.0787 68.4215C53.9437 68.2404 53.7591 68.0913 53.5247 67.9741C53.2903 67.8569 52.9902 67.7983 52.6245 67.7983C52.1238 67.7983 51.7065 67.9137 51.3727 68.1445C51.0424 68.3718 50.8773 68.6612 50.8773 69.0128C50.8773 69.3253 50.9909 69.5721 51.2182 69.7532C51.4455 69.9343 51.8006 70.0852 52.2836 70.206L53.498 70.5043C54.2296 70.6818 54.7747 70.9535 55.1333 71.3192C55.492 71.6815 55.6713 72.1484 55.6713 72.7202C55.6713 73.1889 55.5364 73.608 55.2665 73.9773C55.0002 74.3466 54.6273 74.6378 54.1479 74.8509C53.6685 75.0639 53.111 75.1705 52.4753 75.1705C51.6408 75.1705 50.9501 74.9893 50.4032 74.6271C49.8564 74.2649 49.5101 73.7358 49.3645 73.0398L50.5577 72.7415C50.6713 73.1818 50.8862 73.5121 51.2022 73.7322C51.5218 73.9524 51.9391 74.0625 52.454 74.0625C53.04 74.0625 53.5051 73.9382 53.8496 73.6896C54.1976 73.4375 54.3716 73.1357 54.3716 72.7841C54.3716 72.5 54.2722 72.2621 54.0733 72.0703C53.8745 71.875 53.5691 71.7294 53.1571 71.6335L51.7935 71.3139C51.0442 71.1364 50.4938 70.8612 50.1422 70.4883C49.7942 70.1119 49.6202 69.6413 49.6202 69.0767C49.6202 68.6151 49.7498 68.2067 50.0091 67.8516C50.2718 67.4964 50.6287 67.2177 51.0797 67.0153C51.5343 66.8129 52.0492 66.7116 52.6245 66.7116C53.4341 66.7116 54.0698 66.8892 54.5314 67.2443C54.9966 67.5994 55.3269 68.0682 55.5222 68.6506ZM57.5637 75V66.8182H58.8208V75H57.5637ZM58.2029 65.4545C57.9578 65.4545 57.7465 65.3711 57.569 65.2042C57.395 65.0373 57.308 64.8366 57.308 64.6023C57.308 64.3679 57.395 64.1673 57.569 64.0004C57.7465 63.8335 57.9578 63.75 58.2029 63.75C58.4479 63.75 58.6574 63.8335 58.8314 64.0004C59.009 64.1673 59.0977 64.3679 59.0977 64.6023C59.0977 64.8366 59.009 65.0373 58.8314 65.2042C58.6574 65.3711 58.4479 65.4545 58.2029 65.4545ZM64.6815 66.8182V67.8835H60.4414V66.8182H64.6815ZM61.6772 64.858H62.9343V72.6562C62.9343 73.0114 62.9858 73.2777 63.0888 73.4553C63.1953 73.6293 63.3303 73.7464 63.4936 73.8068C63.6605 73.8636 63.8363 73.892 64.021 73.892C64.1594 73.892 64.2731 73.8849 64.3619 73.8707C64.4506 73.853 64.5217 73.8388 64.5749 73.8281L64.8306 74.9574C64.7454 74.9893 64.6264 75.0213 64.4737 75.0533C64.321 75.0888 64.1275 75.1065 63.8931 75.1065C63.538 75.1065 63.19 75.0302 62.8491 74.8775C62.5117 74.7248 62.2312 74.4922 62.0075 74.1797C61.7873 73.8672 61.6772 73.473 61.6772 72.9972V64.858ZM73.1989 75.1918C72.6804 75.1918 72.2099 75.0941 71.7873 74.8988C71.3647 74.6999 71.0291 74.4141 70.7805 74.0412C70.532 73.6648 70.4077 73.2102 70.4077 72.6776C70.4077 72.2088 70.5 71.8288 70.6847 71.5376C70.8693 71.2429 71.1161 71.0121 71.4251 70.8452C71.734 70.6783 72.0749 70.554 72.4478 70.4723C72.8242 70.3871 73.2024 70.3196 73.5824 70.2699C74.0795 70.206 74.4826 70.158 74.7915 70.1261C75.104 70.0906 75.3313 70.032 75.4734 69.9503C75.619 69.8686 75.6918 69.7266 75.6918 69.5241V69.4815C75.6918 68.956 75.5479 68.5476 75.2603 68.2564C74.9762 67.9652 74.5447 67.8196 73.9659 67.8196C73.3658 67.8196 72.8952 67.951 72.5543 68.2138C72.2134 68.4766 71.9737 68.7571 71.8352 69.0554L70.642 68.6293C70.8551 68.1321 71.1392 67.745 71.4943 67.468C71.853 67.1875 72.2436 66.9922 72.6662 66.8821C73.0923 66.7685 73.5114 66.7116 73.9233 66.7116C74.1861 66.7116 74.4879 66.7436 74.8288 66.8075C75.1733 66.8679 75.5053 66.994 75.8249 67.1857C76.1481 67.3775 76.4162 67.6669 76.6293 68.054C76.8423 68.4411 76.9489 68.9595 76.9489 69.6094V75H75.6918V73.892H75.6278C75.5426 74.0696 75.4006 74.2596 75.2017 74.462C75.0028 74.6644 74.7383 74.8366 74.408 74.9787C74.0778 75.1207 73.6747 75.1918 73.1989 75.1918ZM73.3906 74.0625C73.8878 74.0625 74.3068 73.9648 74.6477 73.7695C74.9922 73.5742 75.2514 73.3221 75.4254 73.0131C75.603 72.7042 75.6918 72.3793 75.6918 72.0384V70.8878C75.6385 70.9517 75.5213 71.0103 75.3402 71.0636C75.1626 71.1133 74.9567 71.1577 74.7223 71.1967C74.4915 71.2322 74.266 71.2642 74.0458 71.2926C73.8292 71.3175 73.6534 71.3388 73.5185 71.3565C73.1918 71.3991 72.8864 71.4684 72.6023 71.5643C72.3217 71.6566 72.0945 71.7969 71.9205 71.9851C71.75 72.1697 71.6648 72.4219 71.6648 72.7415C71.6648 73.1783 71.8263 73.5085 72.1495 73.7322C72.4762 73.9524 72.8899 74.0625 73.3906 74.0625ZM79.2433 75V66.8182H80.4578V68.0966H80.5644C80.7348 67.6598 81.01 67.3207 81.39 67.0792C81.77 66.8342 82.2263 66.7116 82.759 66.7116C83.2987 66.7116 83.748 66.8342 84.1066 67.0792C84.4688 67.3207 84.7512 67.6598 84.9536 68.0966H85.0388C85.2483 67.674 85.5626 67.3384 85.9816 67.0898C86.4007 66.8377 86.9031 66.7116 87.4891 66.7116C88.2206 66.7116 88.819 66.9407 89.2842 67.3988C89.7494 67.8533 89.982 68.5618 89.982 69.5241V75H88.7249V69.5241C88.7249 68.9205 88.5597 68.489 88.2295 68.2298C87.8992 67.9705 87.5104 67.8409 87.0629 67.8409C86.4877 67.8409 86.042 68.0149 85.7259 68.3629C85.4099 68.7074 85.2519 69.1442 85.2519 69.6733V75H83.9735V69.3963C83.9735 68.9311 83.8225 68.5565 83.5207 68.2724C83.2188 67.9847 82.83 67.8409 82.3541 67.8409C82.0274 67.8409 81.722 67.9279 81.4379 68.1019C81.1574 68.2759 80.9301 68.5174 80.7561 68.8263C80.5857 69.1317 80.5004 69.4851 80.5004 69.8864V75H79.2433ZM95.7108 75.1705C94.9225 75.1705 94.2425 74.9964 93.6707 74.6484C93.1025 74.2969 92.664 73.8068 92.355 73.1783C92.0496 72.5462 91.8969 71.8111 91.8969 70.973C91.8969 70.1349 92.0496 69.3963 92.355 68.7571C92.664 68.1143 93.0937 67.6136 93.6441 67.255C94.1981 66.8928 94.8444 66.7116 95.583 66.7116C96.0091 66.7116 96.43 66.7827 96.8454 66.9247C97.2609 67.0668 97.6391 67.2976 97.98 67.6172C98.3209 67.9332 98.5926 68.3523 98.795 68.8743C98.9974 69.3963 99.0986 70.0391 99.0986 70.8026V71.3352H92.7918V70.2486H97.8202C97.8202 69.7869 97.7279 69.375 97.5432 69.0128C97.3621 68.6506 97.1029 68.3647 96.7655 68.1552C96.4317 67.9457 96.0376 67.8409 95.583 67.8409C95.0823 67.8409 94.6491 67.9652 94.2833 68.2138C93.9211 68.4588 93.6423 68.7784 93.447 69.1726C93.2517 69.5668 93.154 69.9893 93.154 70.4403V71.1648C93.154 71.7827 93.2606 72.3065 93.4736 72.7362C93.6903 73.1623 93.9903 73.4872 94.3738 73.7109C94.7574 73.9311 95.203 74.0412 95.7108 74.0412C96.0411 74.0412 96.3394 73.995 96.6057 73.9027C96.8756 73.8068 97.1082 73.6648 97.3035 73.4766C97.4988 73.2848 97.6498 73.0469 97.7563 72.7628L98.9708 73.1037C98.843 73.5156 98.6281 73.8778 98.3263 74.1903C98.0244 74.4993 97.6515 74.7408 97.2077 74.9148C96.7638 75.0852 96.2648 75.1705 95.7108 75.1705ZM104.569 66.8182V67.8835H100.329V66.8182H104.569ZM101.565 64.858H102.822V72.6562C102.822 73.0114 102.873 73.2777 102.976 73.4553C103.083 73.6293 103.218 73.7464 103.381 73.8068C103.548 73.8636 103.724 73.892 103.909 73.892C104.047 73.892 104.161 73.8849 104.25 73.8707C104.338 73.853 104.409 73.8388 104.463 73.8281L104.718 74.9574C104.633 74.9893 104.514 75.0213 104.361 75.0533C104.209 75.0888 104.015 75.1065 103.781 75.1065C103.426 75.1065 103.078 75.0302 102.737 74.8775C102.399 74.7248 102.119 74.4922 101.895 74.1797C101.675 73.8672 101.565 73.473 101.565 72.9972V64.858ZM12.4744 93.1705C11.7074 93.1705 11.0469 92.9893 10.4929 92.6271C9.93892 92.2649 9.51278 91.766 9.21449 91.1303C8.91619 90.4947 8.76705 89.7685 8.76705 88.9517C8.76705 88.1207 8.91974 87.3874 9.22514 86.7518C9.53409 86.1126 9.96378 85.6136 10.5142 85.255C11.0682 84.8928 11.7145 84.7116 12.4531 84.7116C13.0284 84.7116 13.5469 84.8182 14.0085 85.0312C14.4702 85.2443 14.8484 85.5426 15.1431 85.9261C15.4379 86.3097 15.6207 86.7571 15.6918 87.2685H14.4347C14.3388 86.8956 14.1257 86.5653 13.7955 86.2777C13.4688 85.9865 13.0284 85.8409 12.4744 85.8409C11.9844 85.8409 11.5547 85.9687 11.1854 86.2244C10.8196 86.4766 10.5337 86.8335 10.3278 87.2951C10.1254 87.7532 10.0241 88.2912 10.0241 88.9091C10.0241 89.5412 10.1236 90.0916 10.3224 90.5604C10.5249 91.0291 10.8089 91.3931 11.1747 91.6523C11.544 91.9116 11.9773 92.0412 12.4744 92.0412C12.8011 92.0412 13.0977 91.9844 13.364 91.8707C13.6303 91.7571 13.8558 91.5938 14.0405 91.3807C14.2251 91.1676 14.3565 90.9119 14.4347 90.6136H15.6918C15.6207 91.0966 15.445 91.5316 15.1644 91.9187C14.8874 92.3022 14.5199 92.6076 14.0618 92.8349C13.6072 93.0586 13.0781 93.1705 12.4744 93.1705ZM20.8533 93.1705C20.1147 93.1705 19.4666 92.9947 18.9091 92.6431C18.3551 92.2915 17.9219 91.7997 17.6094 91.1676C17.3004 90.5355 17.146 89.7969 17.146 88.9517C17.146 88.0994 17.3004 87.3555 17.6094 86.7198C17.9219 86.0842 18.3551 85.5906 18.9091 85.239C19.4666 84.8874 20.1147 84.7116 20.8533 84.7116C21.592 84.7116 22.2383 84.8874 22.7923 85.239C23.3498 85.5906 23.783 86.0842 24.092 86.7198C24.4045 87.3555 24.5607 88.0994 24.5607 88.9517C24.5607 89.7969 24.4045 90.5355 24.092 91.1676C23.783 91.7997 23.3498 92.2915 22.7923 92.6431C22.2383 92.9947 21.592 93.1705 20.8533 93.1705ZM20.8533 92.0412C21.4144 92.0412 21.8761 91.8974 22.2383 91.6097C22.6005 91.3221 22.8686 90.9439 23.0426 90.4751C23.2166 90.0064 23.3036 89.4986 23.3036 88.9517C23.3036 88.4048 23.2166 87.8952 23.0426 87.4229C22.8686 86.9506 22.6005 86.5689 22.2383 86.2777C21.8761 85.9865 21.4144 85.8409 20.8533 85.8409C20.2923 85.8409 19.8306 85.9865 19.4684 86.2777C19.1062 86.5689 18.8381 86.9506 18.6641 87.4229C18.4901 87.8952 18.4031 88.4048 18.4031 88.9517C18.4031 89.4986 18.4901 90.0064 18.6641 90.4751C18.8381 90.9439 19.1062 91.3221 19.4684 91.6097C19.8306 91.8974 20.2923 92.0412 20.8533 92.0412ZM27.7368 88.0781V93H26.4797V84.8182H27.6942V86.0966H27.8007C27.9925 85.6811 28.2836 85.3473 28.6743 85.0952C29.0649 84.8395 29.5692 84.7116 30.1871 84.7116C30.741 84.7116 31.2258 84.8253 31.6412 85.0526C32.0567 85.2763 32.3799 85.6172 32.6107 86.0753C32.8415 86.5298 32.9569 87.1051 32.9569 87.8011V93H31.6998V87.8864C31.6998 87.2436 31.5329 86.7429 31.1991 86.3842C30.8653 86.022 30.4072 85.8409 29.8248 85.8409C29.4236 85.8409 29.0649 85.9279 28.7488 86.1019C28.4363 86.2759 28.1895 86.5298 28.0084 86.8636C27.8273 87.1974 27.7368 87.6023 27.7368 88.0781ZM41.0495 86.6506L39.9203 86.9702C39.8493 86.782 39.7445 86.5991 39.606 86.4215C39.4711 86.2404 39.2864 86.0913 39.052 85.9741C38.8176 85.8569 38.5176 85.7983 38.1518 85.7983C37.6511 85.7983 37.2338 85.9137 36.9 86.1445C36.5698 86.3718 36.4047 86.6612 36.4047 87.0128C36.4047 87.3253 36.5183 87.5721 36.7456 87.7532C36.9728 87.9343 37.3279 88.0852 37.8109 88.206L39.0254 88.5043C39.7569 88.6818 40.302 88.9535 40.6607 89.3192C41.0194 89.6815 41.1987 90.1484 41.1987 90.7202C41.1987 91.1889 41.0637 91.608 40.7939 91.9773C40.5275 92.3466 40.1547 92.6378 39.6752 92.8509C39.1958 93.0639 38.6383 93.1705 38.0027 93.1705C37.1681 93.1705 36.4775 92.9893 35.9306 92.6271C35.3837 92.2649 35.0375 91.7358 34.8919 91.0398L36.085 90.7415C36.1987 91.1818 36.4135 91.5121 36.7296 91.7322C37.0492 91.9524 37.4664 92.0625 37.9814 92.0625C38.5673 92.0625 39.0325 91.9382 39.377 91.6896C39.725 91.4375 39.899 91.1357 39.899 90.7841C39.899 90.5 39.7995 90.2621 39.6007 90.0703C39.4018 89.875 39.0964 89.7294 38.6845 89.6335L37.3208 89.3139C36.5716 89.1364 36.0211 88.8612 35.6696 88.4883C35.3216 88.1119 35.1475 87.6413 35.1475 87.0767C35.1475 86.6151 35.2772 86.2067 35.5364 85.8516C35.7992 85.4964 36.1561 85.2177 36.6071 85.0153C37.0616 84.8129 37.5765 84.7116 38.1518 84.7116C38.9615 84.7116 39.5971 84.8892 40.0588 85.2443C40.524 85.5994 40.8542 86.0682 41.0495 86.6506ZM46.5214 93.1705C45.733 93.1705 45.053 92.9964 44.4813 92.6484C43.9131 92.2969 43.4745 91.8068 43.1656 91.1783C42.8602 90.5462 42.7075 89.8111 42.7075 88.973C42.7075 88.1349 42.8602 87.3963 43.1656 86.7571C43.4745 86.1143 43.9042 85.6136 44.4546 85.255C45.0086 84.8928 45.6549 84.7116 46.3936 84.7116C46.8197 84.7116 47.2405 84.7827 47.656 84.9247C48.0715 85.0668 48.4497 85.2976 48.7906 85.6172C49.1315 85.9332 49.4031 86.3523 49.6056 86.8743C49.808 87.3963 49.9092 88.0391 49.9092 88.8026V89.3352H43.6024V88.2486H48.6308C48.6308 87.7869 48.5384 87.375 48.3538 87.0128C48.1727 86.6506 47.9134 86.3647 47.5761 86.1552C47.2423 85.9457 46.8481 85.8409 46.3936 85.8409C45.8928 85.8409 45.4596 85.9652 45.0938 86.2138C44.7316 86.4588 44.4529 86.7784 44.2575 87.1726C44.0622 87.5668 43.9646 87.9893 43.9646 88.4403V89.1648C43.9646 89.7827 44.0711 90.3065 44.2842 90.7362C44.5008 91.1623 44.8009 91.4872 45.1844 91.7109C45.5679 91.9311 46.0136 92.0412 46.5214 92.0412C46.8517 92.0412 47.1499 91.995 47.4163 91.9027C47.6862 91.8068 47.9188 91.6648 48.1141 91.4766C48.3094 91.2848 48.4603 91.0469 48.5669 90.7628L49.7813 91.1037C49.6535 91.5156 49.4387 91.8778 49.1368 92.1903C48.835 92.4993 48.4621 92.7408 48.0182 92.9148C47.5743 93.0852 47.0754 93.1705 46.5214 93.1705ZM55.1453 93.1705C54.3783 93.1705 53.7178 92.9893 53.1638 92.6271C52.6098 92.2649 52.1837 91.766 51.8854 91.1303C51.5871 90.4947 51.4379 89.7685 51.4379 88.9517C51.4379 88.1207 51.5906 87.3874 51.896 86.7518C52.205 86.1126 52.6347 85.6136 53.1851 85.255C53.7391 84.8928 54.3854 84.7116 55.124 84.7116C55.6993 84.7116 56.2178 84.8182 56.6794 85.0312C57.1411 85.2443 57.5193 85.5426 57.814 85.9261C58.1088 86.3097 58.2916 86.7571 58.3627 87.2685H57.1056C57.0097 86.8956 56.7966 86.5653 56.4664 86.2777C56.1396 85.9865 55.6993 85.8409 55.1453 85.8409C54.6553 85.8409 54.2256 85.9687 53.8563 86.2244C53.4905 86.4766 53.2046 86.8335 52.9987 87.2951C52.7963 87.7532 52.695 88.2912 52.695 88.9091C52.695 89.5412 52.7945 90.0916 52.9933 90.5604C53.1958 91.0291 53.4798 91.3931 53.8456 91.6523C54.2149 91.9116 54.6482 92.0412 55.1453 92.0412C55.472 92.0412 55.7686 91.9844 56.0349 91.8707C56.3012 91.7571 56.5267 91.5938 56.7114 91.3807C56.896 91.1676 57.0274 90.9119 57.1056 90.6136H58.3627C58.2916 91.0966 58.1159 91.5316 57.8353 91.9187C57.5583 92.3022 57.1908 92.6076 56.7327 92.8349C56.2781 93.0586 55.749 93.1705 55.1453 93.1705ZM63.7586 84.8182V85.8835H59.5186V84.8182H63.7586ZM60.7544 82.858H62.0115V90.6562C62.0115 91.0114 62.0629 91.2777 62.1659 91.4553C62.2725 91.6293 62.4074 91.7464 62.5708 91.8068C62.7377 91.8636 62.9134 91.892 63.0981 91.892C63.2366 91.892 63.3502 91.8849 63.439 91.8707C63.5278 91.853 63.5988 91.8388 63.6521 91.8281L63.9078 92.9574C63.8225 92.9893 63.7036 93.0213 63.5509 93.0533C63.3982 93.0888 63.2046 93.1065 62.9703 93.1065C62.6151 93.1065 62.2671 93.0302 61.9262 92.8775C61.5889 92.7248 61.3083 92.4922 61.0846 92.1797C60.8644 91.8672 60.7544 91.473 60.7544 90.9972V82.858ZM68.9921 93.1705C68.2037 93.1705 67.5237 92.9964 66.952 92.6484C66.3838 92.2969 65.9452 91.8068 65.6363 91.1783C65.3309 90.5462 65.1782 89.8111 65.1782 88.973C65.1782 88.1349 65.3309 87.3963 65.6363 86.7571C65.9452 86.1143 66.3749 85.6136 66.9253 85.255C67.4793 84.8928 68.1256 84.7116 68.8643 84.7116C69.2904 84.7116 69.7112 84.7827 70.1267 84.9247C70.5422 85.0668 70.9204 85.2976 71.2613 85.6172C71.6022 85.9332 71.8738 86.3523 72.0763 86.8743C72.2787 87.3963 72.3799 88.0391 72.3799 88.8026V89.3352H66.0731V88.2486H71.1015C71.1015 87.7869 71.0091 87.375 70.8245 87.0128C70.6434 86.6506 70.3841 86.3647 70.0468 86.1552C69.713 85.9457 69.3188 85.8409 68.8643 85.8409C68.3635 85.8409 67.9303 85.9652 67.5645 86.2138C67.2023 86.4588 66.9236 86.7784 66.7282 87.1726C66.5329 87.5668 66.4353 87.9893 66.4353 88.4403V89.1648C66.4353 89.7827 66.5418 90.3065 66.7549 90.7362C66.9715 91.1623 67.2716 91.4872 67.6551 91.7109C68.0386 91.9311 68.4843 92.0412 68.9921 92.0412C69.3224 92.0412 69.6207 91.995 69.887 91.9027C70.1569 91.8068 70.3895 91.6648 70.5848 91.4766C70.7801 91.2848 70.931 91.0469 71.0376 90.7628L72.252 91.1037C72.1242 91.5156 71.9094 91.8778 71.6075 92.1903C71.3057 92.4993 70.9328 92.7408 70.4889 92.9148C70.045 93.0852 69.5461 93.1705 68.9921 93.1705ZM77.8504 84.8182V85.8835H73.6104V84.8182H77.8504ZM74.8461 82.858H76.1032V90.6562C76.1032 91.0114 76.1547 91.2777 76.2577 91.4553C76.3643 91.6293 76.4992 91.7464 76.6626 91.8068C76.8295 91.8636 77.0052 91.892 77.1899 91.892C77.3284 91.892 77.442 91.8849 77.5308 91.8707C77.6196 91.853 77.6906 91.8388 77.7439 91.8281L77.9996 92.9574C77.9143 92.9893 77.7954 93.0213 77.6427 93.0533C77.49 93.0888 77.2964 93.1065 77.0621 93.1065C76.7069 93.1065 76.3589 93.0302 76.018 92.8775C75.6807 92.7248 75.4001 92.4922 75.1764 92.1797C74.9562 91.8672 74.8461 91.473 74.8461 90.9972V82.858ZM84.8976 89.6548V84.8182H86.1547V93H84.8976V91.6151H84.8124C84.6206 92.0305 84.3224 92.3839 83.9175 92.6751C83.5127 92.9627 83.0013 93.1065 82.3834 93.1065C81.8721 93.1065 81.4175 92.9947 81.0198 92.771C80.6221 92.5437 80.3096 92.2028 80.0823 91.7482C79.855 91.2901 79.7414 90.7131 79.7414 90.017V84.8182H80.9985V89.9318C80.9985 90.5284 81.1654 91.0043 81.4992 91.3594C81.8366 91.7145 82.2662 91.892 82.7883 91.892C83.1008 91.892 83.4186 91.8121 83.7417 91.6523C84.0684 91.4925 84.3419 91.2475 84.5621 90.9173C84.7858 90.587 84.8976 90.1662 84.8976 89.6548ZM88.4572 93V84.8182H89.6717V86.054H89.7569C89.9061 85.6491 90.176 85.3207 90.5666 85.0685C90.9572 84.8164 91.3975 84.6903 91.8876 84.6903C91.9799 84.6903 92.0953 84.6921 92.2338 84.6957C92.3723 84.6992 92.4771 84.7045 92.5481 84.7116V85.9901C92.5055 85.9794 92.4078 85.9634 92.2551 85.9421C92.106 85.9173 91.948 85.9048 91.7811 85.9048C91.3833 85.9048 91.0282 85.9883 90.7157 86.1552C90.4068 86.3185 90.1618 86.5458 89.9806 86.837C89.8031 87.1246 89.7143 87.4531 89.7143 87.8224V93H88.4572ZM11.5582 111.192C11.0398 111.192 10.5692 111.094 10.1467 110.899C9.72408 110.7 9.38849 110.414 9.13991 110.041C8.89134 109.665 8.76705 109.21 8.76705 108.678C8.76705 108.209 8.85938 107.829 9.04403 107.538C9.22869 107.243 9.4755 107.012 9.78445 106.845C10.0934 106.678 10.4343 106.554 10.8072 106.472C11.1836 106.387 11.5618 106.32 11.9418 106.27C12.4389 106.206 12.842 106.158 13.1509 106.126C13.4634 106.091 13.6907 106.032 13.8327 105.95C13.9783 105.869 14.0511 105.727 14.0511 105.524V105.482C14.0511 104.956 13.9073 104.548 13.6197 104.256C13.3356 103.965 12.9041 103.82 12.3253 103.82C11.7251 103.82 11.2546 103.951 10.9137 104.214C10.5728 104.477 10.3331 104.757 10.1946 105.055L9.00142 104.629C9.21449 104.132 9.49858 103.745 9.85369 103.468C10.2124 103.187 10.603 102.992 11.0256 102.882C11.4517 102.768 11.8707 102.712 12.2827 102.712C12.5455 102.712 12.8473 102.744 13.1882 102.808C13.5327 102.868 13.8647 102.994 14.1843 103.186C14.5075 103.377 14.7756 103.667 14.9886 104.054C15.2017 104.441 15.3082 104.96 15.3082 105.609V111H14.0511V109.892H13.9872C13.902 110.07 13.7599 110.26 13.5611 110.462C13.3622 110.664 13.0977 110.837 12.7674 110.979C12.4371 111.121 12.0341 111.192 11.5582 111.192ZM11.75 110.062C12.2472 110.062 12.6662 109.965 13.0071 109.77C13.3516 109.574 13.6108 109.322 13.7848 109.013C13.9624 108.704 14.0511 108.379 14.0511 108.038V106.888C13.9979 106.952 13.8807 107.01 13.6996 107.064C13.522 107.113 13.3161 107.158 13.0817 107.197C12.8509 107.232 12.6254 107.264 12.4052 107.293C12.1886 107.317 12.0128 107.339 11.8778 107.357C11.5511 107.399 11.2457 107.468 10.9616 107.564C10.6811 107.657 10.4538 107.797 10.2798 107.985C10.1094 108.17 10.0241 108.422 10.0241 108.741C10.0241 109.178 10.1857 109.509 10.5089 109.732C10.8356 109.952 11.2493 110.062 11.75 110.062ZM20.6922 111.17C20.0104 111.17 19.4085 110.998 18.8865 110.654C18.3644 110.306 17.9561 109.816 17.6613 109.184C17.3666 108.548 17.2192 107.797 17.2192 106.93C17.2192 106.071 17.3666 105.325 17.6613 104.693C17.9561 104.061 18.3662 103.573 18.8918 103.228C19.4173 102.884 20.0246 102.712 20.7135 102.712C21.2462 102.712 21.667 102.8 21.9759 102.978C22.2884 103.152 22.5264 103.351 22.6897 103.575C22.8566 103.795 22.9862 103.976 23.0786 104.118H23.1851V100.091H24.4422V111H23.2277V109.743H23.0786C22.9862 109.892 22.8548 110.08 22.6844 110.308C22.5139 110.531 22.2707 110.732 21.9546 110.909C21.6386 111.083 21.2178 111.17 20.6922 111.17ZM20.8627 110.041C21.3669 110.041 21.7931 109.91 22.1411 109.647C22.4891 109.381 22.7536 109.013 22.9347 108.544C23.1159 108.072 23.2064 107.527 23.2064 106.909C23.2064 106.298 23.1176 105.764 22.9401 105.306C22.7625 104.844 22.4997 104.485 22.1517 104.23C21.8037 103.971 21.374 103.841 20.8627 103.841C20.33 103.841 19.8861 103.978 19.531 104.251C19.1794 104.521 18.9149 104.888 18.7373 105.354C18.5633 105.815 18.4763 106.334 18.4763 106.909C18.4763 107.491 18.5651 108.021 18.7426 108.496C18.9237 108.969 19.1901 109.345 19.5416 109.626C19.8968 109.903 20.3371 110.041 20.8627 110.041ZM26.9191 111V102.818H28.1762V111H26.9191ZM27.5583 101.455C27.3133 101.455 27.102 101.371 26.9244 101.204C26.7504 101.037 26.6634 100.837 26.6634 100.602C26.6634 100.368 26.7504 100.167 26.9244 100C27.102 99.8335 27.3133 99.75 27.5583 99.75C27.8034 99.75 28.0129 99.8335 28.1869 100C28.3644 100.167 28.4532 100.368 28.4532 100.602C28.4532 100.837 28.3644 101.037 28.1869 101.204C28.0129 101.371 27.8034 101.455 27.5583 101.455ZM30.4787 114.068V102.818H31.6932V104.118H31.8423C31.9347 103.976 32.0625 103.795 32.2259 103.575C32.3928 103.351 32.6307 103.152 32.9396 102.978C33.2521 102.8 33.6747 102.712 34.2074 102.712C34.8963 102.712 35.5036 102.884 36.0291 103.228C36.5547 103.573 36.9648 104.061 37.2596 104.693C37.5543 105.325 37.7017 106.071 37.7017 106.93C37.7017 107.797 37.5543 108.548 37.2596 109.184C36.9648 109.816 36.5565 110.306 36.0344 110.654C35.5124 110.998 34.9105 111.17 34.2287 111.17C33.7031 111.17 33.2823 111.083 32.9663 110.909C32.6502 110.732 32.407 110.531 32.2365 110.308C32.0661 110.08 31.9347 109.892 31.8423 109.743H31.7358V114.068H30.4787ZM31.7145 106.909C31.7145 107.527 31.805 108.072 31.9862 108.544C32.1673 109.013 32.4318 109.381 32.7798 109.647C33.1278 109.91 33.554 110.041 34.0582 110.041C34.5838 110.041 35.0224 109.903 35.3739 109.626C35.729 109.345 35.9954 108.969 36.1729 108.496C36.354 108.021 36.4446 107.491 36.4446 106.909C36.4446 106.334 36.3558 105.815 36.1783 105.354C36.0043 104.888 35.7397 104.521 35.3846 104.251C35.033 103.978 34.5909 103.841 34.0582 103.841C33.5469 103.841 33.1172 103.971 32.7692 104.23C32.4212 104.485 32.1584 104.844 31.9808 105.306C31.8033 105.764 31.7145 106.298 31.7145 106.909ZM39.6193 111V102.818H40.8764V111H39.6193ZM40.2585 101.455C40.0135 101.455 39.8022 101.371 39.6246 101.204C39.4506 101.037 39.3636 100.837 39.3636 100.602C39.3636 100.368 39.4506 100.167 39.6246 100C39.8022 99.8335 40.0135 99.75 40.2585 99.75C40.5036 99.75 40.7131 99.8335 40.8871 100C41.0646 100.167 41.1534 100.368 41.1534 100.602C41.1534 100.837 41.0646 101.037 40.8871 101.204C40.7131 101.371 40.5036 101.455 40.2585 101.455ZM48.9743 104.651L47.8451 104.97C47.7741 104.782 47.6693 104.599 47.5308 104.422C47.3959 104.24 47.2112 104.091 46.9768 103.974C46.7425 103.857 46.4424 103.798 46.0766 103.798C45.5759 103.798 45.1586 103.914 44.8248 104.145C44.4946 104.372 44.3295 104.661 44.3295 105.013C44.3295 105.325 44.4431 105.572 44.6704 105.753C44.8976 105.934 45.2528 106.085 45.7357 106.206L46.9502 106.504C47.6817 106.682 48.2268 106.953 48.5855 107.319C48.9442 107.681 49.1235 108.148 49.1235 108.72C49.1235 109.189 48.9885 109.608 48.7187 109.977C48.4523 110.347 48.0795 110.638 47.6001 110.851C47.1206 111.064 46.5631 111.17 45.9275 111.17C45.093 111.17 44.4023 110.989 43.8554 110.627C43.3085 110.265 42.9623 109.736 42.8167 109.04L44.0099 108.741C44.1235 109.182 44.3383 109.512 44.6544 109.732C44.974 109.952 45.3912 110.062 45.9062 110.062C46.4921 110.062 46.9573 109.938 47.3018 109.69C47.6498 109.437 47.8238 109.136 47.8238 108.784C47.8238 108.5 47.7243 108.262 47.5255 108.07C47.3266 107.875 47.0212 107.729 46.6093 107.634L45.2456 107.314C44.4964 107.136 43.9459 106.861 43.5944 106.488C43.2464 106.112 43.0724 105.641 43.0724 105.077C43.0724 104.615 43.202 104.207 43.4612 103.852C43.724 103.496 44.0809 103.218 44.5319 103.015C44.9864 102.813 45.5013 102.712 46.0766 102.712C46.8863 102.712 47.5219 102.889 47.9836 103.244C48.4488 103.599 48.779 104.068 48.9743 104.651ZM51.0158 111V102.818H52.2729V111H51.0158ZM51.655 101.455C51.41 101.455 51.1987 101.371 51.0211 101.204C50.8471 101.037 50.7601 100.837 50.7601 100.602C50.7601 100.368 50.8471 100.167 51.0211 100C51.1987 99.8335 51.41 99.75 51.655 99.75C51.9 99.75 52.1096 99.8335 52.2836 100C52.4611 100.167 52.5499 100.368 52.5499 100.602C52.5499 100.837 52.4611 101.037 52.2836 101.204C52.1096 101.371 51.9 101.455 51.655 101.455ZM57.8992 111.17C57.1322 111.17 56.4717 110.989 55.9177 110.627C55.3637 110.265 54.9376 109.766 54.6393 109.13C54.341 108.495 54.1919 107.768 54.1919 106.952C54.1919 106.121 54.3445 105.387 54.6499 104.752C54.9589 104.113 55.3886 103.614 55.939 103.255C56.493 102.893 57.1393 102.712 57.8779 102.712C58.4532 102.712 58.9717 102.818 59.4333 103.031C59.895 103.244 60.2732 103.543 60.5679 103.926C60.8627 104.31 61.0455 104.757 61.1166 105.268H59.8595C59.7636 104.896 59.5505 104.565 59.2203 104.278C58.8936 103.987 58.4532 103.841 57.8992 103.841C57.4092 103.841 56.9795 103.969 56.6102 104.224C56.2444 104.477 55.9585 104.833 55.7526 105.295C55.5502 105.753 55.449 106.291 55.449 106.909C55.449 107.541 55.5484 108.092 55.7472 108.56C55.9497 109.029 56.2338 109.393 56.5995 109.652C56.9688 109.912 57.4021 110.041 57.8992 110.041C58.2259 110.041 58.5225 109.984 58.7888 109.871C59.0551 109.757 59.2806 109.594 59.4653 109.381C59.6499 109.168 59.7813 108.912 59.8595 108.614H61.1166C61.0455 109.097 60.8698 109.532 60.5892 109.919C60.3122 110.302 59.9447 110.608 59.4866 110.835C59.032 111.059 58.5029 111.17 57.8992 111.17ZM62.9543 111V102.818H64.2114V111H62.9543ZM63.5935 101.455C63.3485 101.455 63.1372 101.371 62.9596 101.204C62.7856 101.037 62.6986 100.837 62.6986 100.602C62.6986 100.368 62.7856 100.167 62.9596 100C63.1372 99.8335 63.3485 99.75 63.5935 99.75C63.8385 99.75 64.048 99.8335 64.222 100C64.3996 100.167 64.4884 100.368 64.4884 100.602C64.4884 100.837 64.3996 101.037 64.222 101.204C64.048 101.371 63.8385 101.455 63.5935 101.455ZM67.771 106.078V111H66.5138V102.818H67.7283V104.097H67.8349C68.0266 103.681 68.3178 103.347 68.7085 103.095C69.0991 102.839 69.6033 102.712 70.2212 102.712C70.7752 102.712 71.2599 102.825 71.6754 103.053C72.0909 103.276 72.4141 103.617 72.6449 104.075C72.8757 104.53 72.9911 105.105 72.9911 105.801V111H71.734V105.886C71.734 105.244 71.5671 104.743 71.2333 104.384C70.8995 104.022 70.4414 103.841 69.859 103.841C69.4577 103.841 69.0991 103.928 68.783 104.102C68.4705 104.276 68.2237 104.53 68.0426 104.864C67.8615 105.197 67.771 105.602 67.771 106.078ZM78.5908 114.239C77.9836 114.239 77.4616 114.161 77.0248 114.004C76.588 113.852 76.224 113.649 75.9328 113.397C75.6452 113.148 75.4161 112.882 75.2456 112.598L76.2471 111.895C76.3607 112.044 76.5045 112.214 76.6785 112.406C76.8525 112.602 77.0905 112.77 77.3923 112.912C77.6977 113.058 78.0972 113.131 78.5908 113.131C79.2513 113.131 79.7964 112.971 80.2261 112.651C80.6558 112.332 80.8707 111.831 80.8707 111.149V109.487H80.7641C80.6718 109.636 80.5404 109.821 80.3699 110.041C80.203 110.258 79.9616 110.451 79.6455 110.622C79.333 110.789 78.9104 110.872 78.3778 110.872C77.7172 110.872 77.1242 110.716 76.5986 110.403C76.0766 110.091 75.6629 109.636 75.3575 109.04C75.0557 108.443 74.9047 107.719 74.9047 106.866C74.9047 106.028 75.0521 105.299 75.3469 104.677C75.6416 104.052 76.0518 103.569 76.5773 103.228C77.1029 102.884 77.7101 102.712 78.3991 102.712C78.9317 102.712 79.3543 102.8 79.6668 102.978C79.9829 103.152 80.2243 103.351 80.3912 103.575C80.5617 103.795 80.6931 103.976 80.7854 104.118H80.9133V102.818H82.1278V111.234C82.1278 111.938 81.968 112.509 81.6483 112.95C81.3323 113.393 80.9062 113.718 80.3699 113.924C79.8373 114.134 79.2442 114.239 78.5908 114.239ZM78.5482 109.743C79.0525 109.743 79.4786 109.627 79.8266 109.397C80.1746 109.166 80.4392 108.834 80.6203 108.401C80.8014 107.967 80.892 107.449 80.892 106.845C80.892 106.256 80.8032 105.735 80.6256 105.284C80.4481 104.833 80.1853 104.48 79.8373 104.224C79.4893 103.969 79.0596 103.841 78.5482 103.841C78.0155 103.841 77.5716 103.976 77.2165 104.246C76.865 104.516 76.6004 104.878 76.4229 105.332C76.2488 105.787 76.1618 106.291 76.1618 106.845C76.1618 107.413 76.2506 107.916 76.4282 108.353C76.6093 108.786 76.8756 109.127 77.2272 109.375C77.5823 109.62 78.0226 109.743 78.5482 109.743ZM92.078 111.17C91.2897 111.17 90.6096 110.996 90.0379 110.648C89.4697 110.297 89.0312 109.807 88.7222 109.178C88.4168 108.546 88.2641 107.811 88.2641 106.973C88.2641 106.135 88.4168 105.396 88.7222 104.757C89.0312 104.114 89.4608 103.614 90.0113 103.255C90.5653 102.893 91.2116 102.712 91.9502 102.712C92.3763 102.712 92.7971 102.783 93.2126 102.925C93.6281 103.067 94.0063 103.298 94.3472 103.617C94.6881 103.933 94.9598 104.352 95.1622 104.874C95.3646 105.396 95.4658 106.039 95.4658 106.803V107.335H89.159V106.249H94.1874C94.1874 105.787 94.0951 105.375 93.9104 105.013C93.7293 104.651 93.4701 104.365 93.1327 104.155C92.7989 103.946 92.4047 103.841 91.9502 103.841C91.4495 103.841 91.0162 103.965 90.6505 104.214C90.2883 104.459 90.0095 104.778 89.8142 105.173C89.6189 105.567 89.5212 105.989 89.5212 106.44V107.165C89.5212 107.783 89.6278 108.306 89.8408 108.736C90.0574 109.162 90.3575 109.487 90.741 109.711C91.1246 109.931 91.5702 110.041 92.078 110.041C92.4083 110.041 92.7066 109.995 92.9729 109.903C93.2428 109.807 93.4754 109.665 93.6707 109.477C93.866 109.285 94.017 109.047 94.1235 108.763L95.338 109.104C95.2101 109.516 94.9953 109.878 94.6934 110.19C94.3916 110.499 94.0187 110.741 93.5748 110.915C93.1309 111.085 92.632 111.17 92.078 111.17ZM98.6352 100.091V111H97.3781V100.091H98.6352ZM100.938 111V102.818H102.195V111H100.938ZM101.577 101.455C101.332 101.455 101.121 101.371 100.943 101.204C100.769 101.037 100.682 100.837 100.682 100.602C100.682 100.368 100.769 100.167 100.943 100C101.121 99.8335 101.332 99.75 101.577 99.75C101.822 99.75 102.031 99.8335 102.205 100C102.383 100.167 102.472 100.368 102.472 100.602C102.472 100.837 102.383 101.037 102.205 101.204C102.031 101.371 101.822 101.455 101.577 101.455ZM108.055 102.818V103.884H103.815V102.818H108.055ZM105.051 100.858H106.308V108.656C106.308 109.011 106.36 109.278 106.463 109.455C106.569 109.629 106.704 109.746 106.868 109.807C107.035 109.864 107.21 109.892 107.395 109.892C107.533 109.892 107.647 109.885 107.736 109.871C107.825 109.853 107.896 109.839 107.949 109.828L108.205 110.957C108.119 110.989 108 111.021 107.848 111.053C107.695 111.089 107.502 111.107 107.267 111.107C106.912 111.107 106.564 111.03 106.223 110.877C105.886 110.725 105.605 110.492 105.381 110.18C105.161 109.867 105.051 109.473 105.051 108.997V100.858ZM110.863 111.085C110.6 111.085 110.374 110.991 110.186 110.803C109.998 110.615 109.904 110.389 109.904 110.126C109.904 109.864 109.998 109.638 110.186 109.45C110.374 109.262 110.6 109.168 110.863 109.168C111.125 109.168 111.351 109.262 111.539 109.45C111.727 109.638 111.821 109.864 111.821 110.126C111.821 110.3 111.777 110.46 111.688 110.606C111.603 110.751 111.488 110.869 111.342 110.957C111.2 111.043 111.04 111.085 110.863 111.085Z" fill="black"/>
<defs>
<filter id="filter0_d_32_64" x="11" y="10" width="22" height="22" filterUnits="userSpaceOnUse" color-interpolation-filters="sRGB">
<feFlood flood-opacity="0" result="BackgroundImageFix"/>
<feColorMatrix in="SourceAlpha" type="matrix" values="0 0 0 0 0 0 0 0 0 0 0 0 0 0 0 0 0 0 127 0" result="hardAlpha"/>
<feOffset dy="4"/>
<feGaussianBlur stdDeviation="2"/>
<feComposite in2="hardAlpha" operator="out"/>
<feColorMatrix type="matrix" values="0 0 0 0 0 0 0 0 0 0 0 0 0 0 0 0 0 0 0.25 0"/>
<feBlend mode="normal" in2="BackgroundImageFix" result="effect1_dropShadow_32_64"/>
<feBlend mode="normal" in="SourceGraphic" in2="effect1_dropShadow_32_64" result="shape"/>
</filter>
<filter id="filter1_d_32_64" x="31.321" y="11.0909" width="42.8686" height="19.0796" filterUnits="userSpaceOnUse" color-interpolation-filters="sRGB">
<feFlood flood-opacity="0" result="BackgroundImageFix"/>
<feColorMatrix in="SourceAlpha" type="matrix" values="0 0 0 0 0 0 0 0 0 0 0 0 0 0 0 0 0 0 127 0" result="hardAlpha"/>
<feOffset dy="4"/>
<feGaussianBlur stdDeviation="2"/>
<feComposite in2="hardAlpha" operator="out"/>
<feColorMatrix type="matrix" values="0 0 0 0 0 0 0 0 0 0 0 0 0 0 0 0 0 0 0.25 0"/>
<feBlend mode="normal" in2="BackgroundImageFix" result="effect1_dropShadow_32_64"/>
<feBlend mode="normal" in="SourceGraphic" in2="effect1_dropShadow_32_64" result="shape"/>
</filter>
</defs>
</svg>
