<svg width="400" height="135" viewBox="0 0 400 135" fill="none" xmlns="http://www.w3.org/2000/svg">
<g filter="url(#filter0_d_16_29)">
<path d="M37.9716 114.091V125H36.6932L30.7486 116.435H30.642V125H29.321V114.091H30.5994L36.5653 122.678H36.6719V114.091H37.9716ZM43.8749 125.17C43.0866 125.17 42.4065 124.996 41.8348 124.648C41.2666 124.297 40.828 123.807 40.5191 123.178C40.2137 122.546 40.061 121.811 40.061 120.973C40.061 120.135 40.2137 119.396 40.5191 118.757C40.828 118.114 41.2577 117.614 41.8081 117.255C42.3621 116.893 43.0084 116.712 43.7471 116.712C44.1732 116.712 44.594 116.783 45.0095 116.925C45.425 117.067 45.8032 117.298 46.1441 117.617C46.485 117.933 46.7567 118.352 46.9591 118.874C47.1615 119.396 47.2627 120.039 47.2627 120.803V121.335H40.9559V120.249H45.9843C45.9843 119.787 45.892 119.375 45.7073 119.013C45.5262 118.651 45.267 118.365 44.9296 118.155C44.5958 117.946 44.2016 117.841 43.7471 117.841C43.2464 117.841 42.8131 117.965 42.4474 118.214C42.0851 118.459 41.8064 118.778 41.6111 119.173C41.4157 119.567 41.3181 119.989 41.3181 120.44V121.165C41.3181 121.783 41.4246 122.306 41.6377 122.736C41.8543 123.162 42.1544 123.487 42.5379 123.711C42.9214 123.931 43.3671 124.041 43.8749 124.041C44.2052 124.041 44.5035 123.995 44.7698 123.903C45.0397 123.807 45.2723 123.665 45.4676 123.477C45.6629 123.285 45.8138 123.047 45.9204 122.763L47.1349 123.104C47.007 123.516 46.7922 123.878 46.4903 124.19C46.1885 124.499 45.8156 124.741 45.3717 124.915C44.9278 125.085 44.4289 125.17 43.8749 125.17ZM51.0287 125L48.5358 116.818H49.8568L51.6253 123.082H51.7105L53.4577 116.818H54.8L56.5258 123.061H56.6111L58.3795 116.818H59.7006L57.2077 125H55.9719L54.1821 118.714H54.0542L52.2645 125H51.0287ZM71.7176 116.818C71.6537 116.278 71.3944 115.859 70.9399 115.561C70.4854 115.263 69.9278 115.114 69.2673 115.114C68.7844 115.114 68.3618 115.192 67.9996 115.348C67.6409 115.504 67.3604 115.719 67.1579 115.993C66.9591 116.266 66.8596 116.577 66.8596 116.925C66.8596 117.216 66.9289 117.466 67.0674 117.676C67.2094 117.882 67.3905 118.054 67.6107 118.192C67.8309 118.327 68.0617 118.439 68.3032 118.528C68.5447 118.613 68.7666 118.683 68.969 118.736L70.077 119.034C70.3611 119.109 70.6771 119.212 71.0251 119.343C71.3767 119.474 71.7123 119.654 72.0319 119.881C72.355 120.105 72.6214 120.392 72.8309 120.744C73.0404 121.096 73.1452 121.527 73.1452 122.038C73.1452 122.628 72.9907 123.161 72.6817 123.636C72.3763 124.112 71.9289 124.49 71.3394 124.771C70.7535 125.051 70.0415 125.192 69.2034 125.192C68.4221 125.192 67.7456 125.066 67.1739 124.814C66.6057 124.561 66.1583 124.21 65.8316 123.759C65.5084 123.308 65.3256 122.784 65.2829 122.188H66.6466C66.6821 122.599 66.8206 122.94 67.0621 123.21C67.3071 123.477 67.616 123.675 67.9889 123.807C68.3653 123.935 68.7702 123.999 69.2034 123.999C69.7077 123.999 70.1604 123.917 70.5617 123.754C70.963 123.587 71.2808 123.356 71.5152 123.061C71.7496 122.763 71.8667 122.415 71.8667 122.017C71.8667 121.655 71.7655 121.36 71.5631 121.133C71.3607 120.906 71.0944 120.721 70.7641 120.579C70.4339 120.437 70.077 120.312 69.6934 120.206L68.3511 119.822C67.4988 119.577 66.8241 119.228 66.327 118.773C65.8298 118.319 65.5812 117.724 65.5812 116.989C65.5812 116.378 65.7464 115.845 66.0766 115.391C66.4104 114.933 66.8579 114.577 67.4189 114.325C67.9836 114.07 68.6139 113.942 69.3099 113.942C70.0131 113.942 70.6381 114.068 71.1849 114.32C71.7318 114.569 72.165 114.909 72.4846 115.343C72.8078 115.776 72.9782 116.268 72.996 116.818H71.7176ZM78.5771 125.17C77.7887 125.17 77.1087 124.996 76.5369 124.648C75.9688 124.297 75.5302 123.807 75.2212 123.178C74.9158 122.546 74.7631 121.811 74.7631 120.973C74.7631 120.135 74.9158 119.396 75.2212 118.757C75.5302 118.114 75.9599 117.614 76.5103 117.255C77.0643 116.893 77.7106 116.712 78.4492 116.712C78.8754 116.712 79.2962 116.783 79.7116 116.925C80.1271 117.067 80.5053 117.298 80.8462 117.617C81.1871 117.933 81.4588 118.352 81.6612 118.874C81.8636 119.396 81.9648 120.039 81.9648 120.803V121.335H75.658V120.249H80.6864C80.6864 119.787 80.5941 119.375 80.4094 119.013C80.2283 118.651 79.9691 118.365 79.6317 118.155C79.2979 117.946 78.9038 117.841 78.4492 117.841C77.9485 117.841 77.5153 117.965 77.1495 118.214C76.7873 118.459 76.5085 118.778 76.3132 119.173C76.1179 119.567 76.0202 119.989 76.0202 120.44V121.165C76.0202 121.783 76.1268 122.306 76.3398 122.736C76.5565 123.162 76.8565 123.487 77.2401 123.711C77.6236 123.931 78.0692 124.041 78.5771 124.041C78.9073 124.041 79.2056 123.995 79.4719 123.903C79.7418 123.807 79.9744 123.665 80.1697 123.477C80.3651 123.285 80.516 123.047 80.6225 122.763L81.837 123.104C81.7092 123.516 81.4943 123.878 81.1925 124.19C80.8906 124.499 80.5178 124.741 80.0739 124.915C79.63 125.085 79.131 125.17 78.5771 125.17ZM87.201 125.17C86.4339 125.17 85.7734 124.989 85.2195 124.627C84.6655 124.265 84.2393 123.766 83.9411 123.13C83.6428 122.495 83.4936 121.768 83.4936 120.952C83.4936 120.121 83.6463 119.387 83.9517 118.752C84.2607 118.113 84.6903 117.614 85.2408 117.255C85.7947 116.893 86.4411 116.712 87.1797 116.712C87.755 116.712 88.2734 116.818 88.7351 117.031C89.1967 117.244 89.5749 117.543 89.8697 117.926C90.1644 118.31 90.3473 118.757 90.4183 119.268H89.1612C89.0653 118.896 88.8523 118.565 88.522 118.278C88.1953 117.987 87.755 117.841 87.201 117.841C86.7109 117.841 86.2813 117.969 85.9119 118.224C85.5462 118.477 85.2603 118.833 85.0543 119.295C84.8519 119.753 84.7507 120.291 84.7507 120.909C84.7507 121.541 84.8501 122.092 85.049 122.56C85.2514 123.029 85.5355 123.393 85.9013 123.652C86.2706 123.912 86.7038 124.041 87.201 124.041C87.5277 124.041 87.8242 123.984 88.0906 123.871C88.3569 123.757 88.5824 123.594 88.767 123.381C88.9517 123.168 89.0831 122.912 89.1612 122.614H90.4183C90.3473 123.097 90.1715 123.532 89.891 123.919C89.614 124.302 89.2464 124.608 88.7884 124.835C88.3338 125.059 87.8047 125.17 87.201 125.17ZM95.8143 116.818V117.884H91.5742V116.818H95.8143ZM92.81 114.858H94.0671V122.656C94.0671 123.011 94.1186 123.278 94.2216 123.455C94.3281 123.629 94.4631 123.746 94.6264 123.807C94.7933 123.864 94.9691 123.892 95.1538 123.892C95.2923 123.892 95.4059 123.885 95.4947 123.871C95.5835 123.853 95.6545 123.839 95.7077 123.828L95.9634 124.957C95.8782 124.989 95.7592 125.021 95.6065 125.053C95.4538 125.089 95.2603 125.107 95.0259 125.107C94.6708 125.107 94.3228 125.03 93.9819 124.877C93.6445 124.725 93.364 124.492 93.1403 124.18C92.9201 123.867 92.81 123.473 92.81 122.997V114.858ZM97.7053 125V116.818H98.9624V125H97.7053ZM98.3445 115.455C98.0994 115.455 97.8881 115.371 97.7106 115.204C97.5366 115.037 97.4496 114.837 97.4496 114.602C97.4496 114.368 97.5366 114.167 97.7106 114C97.8881 113.833 98.0994 113.75 98.3445 113.75C98.5895 113.75 98.799 113.833 98.973 114C99.1506 114.167 99.2393 114.368 99.2393 114.602C99.2393 114.837 99.1506 115.037 98.973 115.204C98.799 115.371 98.5895 115.455 98.3445 115.455ZM104.589 125.17C103.85 125.17 103.202 124.995 102.644 124.643C102.09 124.292 101.657 123.8 101.345 123.168C101.036 122.536 100.881 121.797 100.881 120.952C100.881 120.099 101.036 119.355 101.345 118.72C101.657 118.084 102.09 117.591 102.644 117.239C103.202 116.887 103.85 116.712 104.589 116.712C105.327 116.712 105.974 116.887 106.528 117.239C107.085 117.591 107.518 118.084 107.827 118.72C108.14 119.355 108.296 120.099 108.296 120.952C108.296 121.797 108.14 122.536 107.827 123.168C107.518 123.8 107.085 124.292 106.528 124.643C105.974 124.995 105.327 125.17 104.589 125.17ZM104.589 124.041C105.15 124.041 105.611 123.897 105.974 123.61C106.336 123.322 106.604 122.944 106.778 122.475C106.952 122.006 107.039 121.499 107.039 120.952C107.039 120.405 106.952 119.895 106.778 119.423C106.604 118.951 106.336 118.569 105.974 118.278C105.611 117.987 105.15 117.841 104.589 117.841C104.028 117.841 103.566 117.987 103.204 118.278C102.842 118.569 102.573 118.951 102.399 119.423C102.225 119.895 102.138 120.405 102.138 120.952C102.138 121.499 102.225 122.006 102.399 122.475C102.573 122.944 102.842 123.322 103.204 123.61C103.566 123.897 104.028 124.041 104.589 124.041ZM111.472 120.078V125H110.215V116.818H111.43V118.097H111.536C111.728 117.681 112.019 117.347 112.41 117.095C112.8 116.839 113.305 116.712 113.922 116.712C114.476 116.712 114.961 116.825 115.377 117.053C115.792 117.276 116.115 117.617 116.346 118.075C116.577 118.53 116.692 119.105 116.692 119.801V125H115.435V119.886C115.435 119.244 115.268 118.743 114.934 118.384C114.601 118.022 114.143 117.841 113.56 117.841C113.159 117.841 112.8 117.928 112.484 118.102C112.172 118.276 111.925 118.53 111.744 118.864C111.563 119.197 111.472 119.602 111.472 120.078Z" fill="black"/>
</g>
<g filter="url(#filter1_d_16_29)">
<path d="M10.4091 35.3636H12.0909L16.0455 45.0227H16.1818L20.1364 35.3636H21.8182V47H20.5V38.1591H20.3864L16.75 47H15.4773L11.8409 38.1591H11.7273V47H10.4091V35.3636ZM25.3253 50.2727C25.098 50.2727 24.8954 50.2538 24.7173 50.2159C24.5393 50.1818 24.4162 50.1477 24.348 50.1136L24.6889 48.9318C25.0147 49.0152 25.3026 49.0455 25.5526 49.0227C25.8026 49 26.0241 48.8883 26.2173 48.6875C26.4143 48.4905 26.5942 48.1705 26.7571 47.7273L27.0071 47.0455L23.7798 38.2727H25.2344L27.6435 45.2273H27.7344L30.1435 38.2727H31.598L27.8935 48.2727C27.7268 48.7235 27.5204 49.0966 27.2741 49.392C27.0279 49.6913 26.742 49.9129 26.4162 50.0568C26.0942 50.2008 25.7306 50.2727 25.3253 50.2727ZM37.4134 36.6136V35.3636H46.1406V36.6136H42.4815V47H41.0724V36.6136H37.4134ZM50.527 47.1818C49.6861 47.1818 48.9607 46.9962 48.3509 46.625C47.7448 46.25 47.277 45.7273 46.9474 45.0568C46.6217 44.3826 46.4588 43.5985 46.4588 42.7045C46.4588 41.8106 46.6217 41.0227 46.9474 40.3409C47.277 39.6553 47.7353 39.1212 48.3224 38.7386C48.9134 38.3523 49.6027 38.1591 50.3906 38.1591C50.8452 38.1591 51.294 38.2348 51.7372 38.3864C52.1804 38.5379 52.5838 38.7841 52.9474 39.125C53.3111 39.4621 53.6009 39.9091 53.8168 40.4659C54.0327 41.0227 54.1406 41.7083 54.1406 42.5227V43.0909H47.4134V41.9318H52.777C52.777 41.4394 52.6785 41 52.4815 40.6136C52.2884 40.2273 52.0118 39.9223 51.652 39.6989C51.2959 39.4754 50.8755 39.3636 50.3906 39.3636C49.8565 39.3636 49.3944 39.4962 49.0043 39.7614C48.6179 40.0227 48.3205 40.3636 48.1122 40.7841C47.9039 41.2045 47.7997 41.6553 47.7997 42.1364V42.9091C47.7997 43.5682 47.9134 44.1269 48.1406 44.5852C48.3717 45.0398 48.6918 45.3864 49.1009 45.625C49.5099 45.8598 49.9853 45.9773 50.527 45.9773C50.8793 45.9773 51.1974 45.928 51.4815 45.8295C51.7694 45.7273 52.0175 45.5758 52.2259 45.375C52.4342 45.1705 52.5952 44.9167 52.7088 44.6136L54.0043 44.9773C53.8679 45.4167 53.6387 45.803 53.3168 46.1364C52.9948 46.4659 52.5971 46.7235 52.1236 46.9091C51.6501 47.0909 51.1179 47.1818 50.527 47.1818ZM58.7486 47.2045C58.1955 47.2045 57.6937 47.1004 57.2429 46.892C56.7921 46.6799 56.4342 46.375 56.169 45.9773C55.9039 45.5758 55.7713 45.0909 55.7713 44.5227C55.7713 44.0227 55.8698 43.6174 56.0668 43.3068C56.2637 42.9924 56.527 42.7462 56.8565 42.5682C57.1861 42.3902 57.5497 42.2576 57.9474 42.1705C58.349 42.0795 58.7524 42.0076 59.1577 41.9545C59.688 41.8864 60.1179 41.8352 60.4474 41.8011C60.7808 41.7633 61.0232 41.7008 61.1747 41.6136C61.33 41.5265 61.4077 41.375 61.4077 41.1591V41.1136C61.4077 40.553 61.2543 40.1174 60.9474 39.8068C60.6444 39.4962 60.1842 39.3409 59.5668 39.3409C58.9266 39.3409 58.4247 39.4811 58.0611 39.7614C57.6974 40.0417 57.4418 40.3409 57.294 40.6591L56.0213 40.2045C56.2486 39.6742 56.5516 39.2614 56.9304 38.9659C57.313 38.6667 57.7296 38.4583 58.1804 38.3409C58.6349 38.2197 59.0819 38.1591 59.5213 38.1591C59.8016 38.1591 60.1236 38.1932 60.4872 38.2614C60.8546 38.3258 61.2088 38.4602 61.5497 38.6648C61.8944 38.8693 62.1804 39.178 62.4077 39.5909C62.6349 40.0038 62.7486 40.5568 62.7486 41.25V47H61.4077V45.8182H61.3395C61.2486 46.0076 61.0971 46.2102 60.8849 46.4261C60.6728 46.642 60.3906 46.8258 60.0384 46.9773C59.6861 47.1288 59.2562 47.2045 58.7486 47.2045ZM58.9531 46C59.4834 46 59.9304 45.8958 60.294 45.6875C60.6615 45.4792 60.938 45.2102 61.1236 44.8807C61.313 44.5511 61.4077 44.2045 61.4077 43.8409V42.6136C61.3509 42.6818 61.2259 42.7443 61.0327 42.8011C60.8433 42.8542 60.6236 42.9015 60.3736 42.9432C60.1274 42.9811 59.8868 43.0152 59.652 43.0455C59.4209 43.072 59.2334 43.0947 59.0895 43.1136C58.741 43.1591 58.4152 43.233 58.1122 43.3352C57.813 43.4337 57.5705 43.5833 57.3849 43.7841C57.2031 43.9811 57.1122 44.25 57.1122 44.5909C57.1122 45.0568 57.2846 45.4091 57.6293 45.6477C57.9777 45.8826 58.419 46 58.9531 46ZM65.196 47V38.2727H66.4915V39.6364H66.6051C66.7869 39.1705 67.0805 38.8087 67.4858 38.5511C67.8911 38.2898 68.3778 38.1591 68.946 38.1591C69.5218 38.1591 70.0009 38.2898 70.3835 38.5511C70.7699 38.8087 71.071 39.1705 71.2869 39.6364H71.3778C71.6013 39.1856 71.9366 38.8277 72.3835 38.5625C72.8305 38.2936 73.3665 38.1591 73.9915 38.1591C74.7718 38.1591 75.41 38.4034 75.9062 38.892C76.4025 39.3769 76.6506 40.1326 76.6506 41.1591V47H75.3097V41.1591C75.3097 40.5152 75.1335 40.0549 74.7812 39.7784C74.429 39.5019 74.0142 39.3636 73.5369 39.3636C72.9233 39.3636 72.4479 39.5492 72.1108 39.9205C71.7737 40.2879 71.6051 40.7538 71.6051 41.3182V47H70.2415V41.0227C70.2415 40.5265 70.0805 40.1269 69.7585 39.8239C69.4366 39.517 69.0218 39.3636 68.5142 39.3636C68.1657 39.3636 67.84 39.4564 67.5369 39.642C67.2377 39.8277 66.9953 40.0852 66.8097 40.4148C66.6278 40.7405 66.5369 41.1174 66.5369 41.5455V47H65.196Z" fill="#060606"/>
</g>
<g filter="url(#filter2_d_16_29)">
<path d="M10.4091 3.36364H12.0909L16.0455 13.0227H16.1818L20.1364 3.36364H21.8182V15H20.5V6.15909H20.3864L16.75 15H15.4773L11.8409 6.15909H11.7273V15H10.4091V3.36364ZM28.0071 15.1818C27.2192 15.1818 26.5279 14.9943 25.9332 14.6193C25.3423 14.2443 24.8802 13.7197 24.5469 13.0455C24.2173 12.3712 24.0526 11.5833 24.0526 10.6818C24.0526 9.77273 24.2173 8.97917 24.5469 8.30114C24.8802 7.62311 25.3423 7.09659 25.9332 6.72159C26.5279 6.34659 27.2192 6.15909 28.0071 6.15909C28.795 6.15909 29.4844 6.34659 30.0753 6.72159C30.67 7.09659 31.1321 7.62311 31.4616 8.30114C31.795 8.97917 31.9616 9.77273 31.9616 10.6818C31.9616 11.5833 31.795 12.3712 31.4616 13.0455C31.1321 13.7197 30.67 14.2443 30.0753 14.6193C29.4844 14.9943 28.795 15.1818 28.0071 15.1818ZM28.0071 13.9773C28.6056 13.9773 29.098 13.8239 29.4844 13.517C29.8707 13.2102 30.1567 12.8068 30.3423 12.3068C30.5279 11.8068 30.6207 11.2652 30.6207 10.6818C30.6207 10.0985 30.5279 9.55492 30.3423 9.05114C30.1567 8.54735 29.8707 8.14015 29.4844 7.82955C29.098 7.51894 28.6056 7.36364 28.0071 7.36364C27.4086 7.36364 26.9162 7.51894 26.5298 7.82955C26.1435 8.14015 25.8575 8.54735 25.6719 9.05114C25.4863 9.55492 25.3935 10.0985 25.3935 10.6818C25.3935 11.2652 25.4863 11.8068 25.6719 12.3068C25.8575 12.8068 26.1435 13.2102 26.5298 13.517C26.9162 13.8239 27.4086 13.9773 28.0071 13.9773ZM34.0085 15V6.27273H35.304V7.59091H35.3949C35.554 7.15909 35.8419 6.80871 36.2585 6.53977C36.6752 6.27083 37.1449 6.13636 37.6676 6.13636C37.7661 6.13636 37.8892 6.13826 38.0369 6.14205C38.1847 6.14583 38.2964 6.15152 38.3722 6.15909V7.52273C38.3267 7.51136 38.2225 7.49432 38.0597 7.47159C37.9006 7.44508 37.732 7.43182 37.554 7.43182C37.1297 7.43182 36.7509 7.52083 36.4176 7.69886C36.0881 7.87311 35.8267 8.11553 35.6335 8.42614C35.4441 8.73295 35.3494 9.08333 35.3494 9.47727V15H34.0085ZM41.3026 9.75V15H39.9616V6.27273H41.2571V7.63636H41.3707C41.5753 7.19318 41.8859 6.83712 42.3026 6.56818C42.7192 6.29545 43.2571 6.15909 43.9162 6.15909C44.5071 6.15909 45.0241 6.2803 45.4673 6.52273C45.9105 6.76136 46.2552 7.125 46.5014 7.61364C46.7476 8.09848 46.8707 8.71212 46.8707 9.45455V15H45.5298V9.54545C45.5298 8.85985 45.3518 8.32576 44.9957 7.94318C44.6397 7.55682 44.151 7.36364 43.5298 7.36364C43.1018 7.36364 42.7192 7.45644 42.3821 7.64205C42.0488 7.82765 41.7855 8.09848 41.5923 8.45455C41.3991 8.81061 41.3026 9.24242 41.3026 9.75ZM49.321 15V6.27273H50.6619V15H49.321ZM50.0028 4.81818C49.7415 4.81818 49.5161 4.72917 49.3267 4.55114C49.1411 4.37311 49.0483 4.15909 49.0483 3.90909C49.0483 3.65909 49.1411 3.44508 49.3267 3.26705C49.5161 3.08902 49.7415 3 50.0028 3C50.2642 3 50.4877 3.08902 50.6733 3.26705C50.8627 3.44508 50.9574 3.65909 50.9574 3.90909C50.9574 4.15909 50.8627 4.37311 50.6733 4.55114C50.4877 4.72917 50.2642 4.81818 50.0028 4.81818ZM54.4588 9.75V15H53.1179V6.27273H54.4134V7.63636H54.527C54.7315 7.19318 55.0421 6.83712 55.4588 6.56818C55.8755 6.29545 56.4134 6.15909 57.0724 6.15909C57.6634 6.15909 58.1804 6.2803 58.6236 6.52273C59.0668 6.76136 59.4115 7.125 59.6577 7.61364C59.9039 8.09848 60.027 8.71212 60.027 9.45455V15H58.6861V9.54545C58.6861 8.85985 58.508 8.32576 58.152 7.94318C57.7959 7.55682 57.3073 7.36364 56.6861 7.36364C56.258 7.36364 55.8755 7.45644 55.5384 7.64205C55.205 7.82765 54.9418 8.09848 54.7486 8.45455C54.5554 8.81061 54.4588 9.24242 54.4588 9.75ZM66 18.4545C65.3523 18.4545 64.7955 18.3712 64.3295 18.2045C63.8636 18.0417 63.4754 17.8258 63.1648 17.5568C62.858 17.2917 62.6136 17.0076 62.4318 16.7045L63.5 15.9545C63.6212 16.1136 63.7746 16.2955 63.9602 16.5C64.1458 16.7083 64.3996 16.8883 64.7216 17.0398C65.0473 17.1951 65.4735 17.2727 66 17.2727C66.7045 17.2727 67.286 17.1023 67.7443 16.7614C68.2027 16.4205 68.4318 15.8864 68.4318 15.1591V13.3864H68.3182C68.2197 13.5455 68.0795 13.7424 67.8977 13.9773C67.7197 14.2083 67.4621 14.4148 67.125 14.5966C66.7917 14.7746 66.3409 14.8636 65.7727 14.8636C65.0682 14.8636 64.4356 14.697 63.875 14.3636C63.3182 14.0303 62.8769 13.5455 62.5511 12.9091C62.2292 12.2727 62.0682 11.5 62.0682 10.5909C62.0682 9.69697 62.2254 8.91856 62.5398 8.25568C62.8542 7.58901 63.2917 7.07386 63.8523 6.71023C64.4129 6.3428 65.0606 6.15909 65.7955 6.15909C66.3636 6.15909 66.8144 6.25379 67.1477 6.44318C67.4848 6.62879 67.7424 6.84091 67.9205 7.07955C68.1023 7.31439 68.2424 7.50758 68.3409 7.65909H68.4773V6.27273H69.7727V15.25C69.7727 16 69.6023 16.6098 69.2614 17.0795C68.9242 17.553 68.4697 17.8996 67.8977 18.1193C67.3295 18.3428 66.697 18.4545 66 18.4545ZM65.9545 13.6591C66.4924 13.6591 66.947 13.536 67.3182 13.2898C67.6894 13.0436 67.9716 12.6894 68.1648 12.2273C68.358 11.7652 68.4545 11.2121 68.4545 10.5682C68.4545 9.93939 68.3598 9.38447 68.1705 8.90341C67.9811 8.42235 67.7008 8.04545 67.3295 7.77273C66.9583 7.5 66.5 7.36364 65.9545 7.36364C65.3864 7.36364 64.9129 7.50758 64.5341 7.79545C64.1591 8.08333 63.8769 8.4697 63.6875 8.95455C63.5019 9.43939 63.4091 9.97727 63.4091 10.5682C63.4091 11.1742 63.5038 11.7102 63.6932 12.1761C63.8864 12.6383 64.1705 13.0019 64.5455 13.267C64.9242 13.5284 65.3939 13.6591 65.9545 13.6591ZM80.2727 15.1818C79.4545 15.1818 78.75 14.9886 78.1591 14.6023C77.5682 14.2159 77.1136 13.6837 76.7955 13.0057C76.4773 12.3277 76.3182 11.553 76.3182 10.6818C76.3182 9.79545 76.4811 9.01326 76.8068 8.33523C77.1364 7.65341 77.5947 7.12121 78.1818 6.73864C78.7727 6.35227 79.4621 6.15909 80.25 6.15909C80.8636 6.15909 81.4167 6.27273 81.9091 6.5C82.4015 6.72727 82.8049 7.04545 83.1193 7.45455C83.4337 7.86364 83.6288 8.34091 83.7045 8.88636H82.3636C82.2614 8.48864 82.0341 8.13636 81.6818 7.82955C81.3333 7.51894 80.8636 7.36364 80.2727 7.36364C79.75 7.36364 79.2917 7.5 78.8977 7.77273C78.5076 8.04167 78.2027 8.42235 77.983 8.91477C77.767 9.40341 77.6591 9.97727 77.6591 10.6364C77.6591 11.3106 77.7652 11.8977 77.9773 12.3977C78.1932 12.8977 78.4962 13.286 78.8864 13.5625C79.2803 13.839 79.7424 13.9773 80.2727 13.9773C80.6212 13.9773 80.9375 13.9167 81.2216 13.7955C81.5057 13.6742 81.7462 13.5 81.9432 13.2727C82.1402 13.0455 82.2803 12.7727 82.3636 12.4545H83.7045C83.6288 12.9697 83.4413 13.4337 83.142 13.8466C82.8466 14.2557 82.4545 14.5814 81.9659 14.8239C81.4811 15.0625 80.9167 15.1818 80.2727 15.1818ZM88.233 15.2045C87.6799 15.2045 87.178 15.1004 86.7273 14.892C86.2765 14.6799 85.9186 14.375 85.6534 13.9773C85.3883 13.5758 85.2557 13.0909 85.2557 12.5227C85.2557 12.0227 85.3542 11.6174 85.5511 11.3068C85.7481 10.9924 86.0114 10.7462 86.3409 10.5682C86.6705 10.3902 87.0341 10.2576 87.4318 10.1705C87.8333 10.0795 88.2367 10.0076 88.642 9.95455C89.1723 9.88636 89.6023 9.83523 89.9318 9.80114C90.2652 9.76326 90.5076 9.70076 90.6591 9.61364C90.8144 9.52652 90.892 9.375 90.892 9.15909V9.11364C90.892 8.55303 90.7386 8.11742 90.4318 7.80682C90.1288 7.49621 89.6686 7.34091 89.0511 7.34091C88.411 7.34091 87.9091 7.48106 87.5455 7.76136C87.1818 8.04167 86.9261 8.34091 86.7784 8.65909L85.5057 8.20455C85.733 7.67424 86.036 7.26136 86.4148 6.96591C86.7973 6.66667 87.214 6.45833 87.6648 6.34091C88.1193 6.2197 88.5663 6.15909 89.0057 6.15909C89.286 6.15909 89.608 6.19318 89.9716 6.26136C90.339 6.32576 90.6932 6.46023 91.0341 6.66477C91.3788 6.86932 91.6648 7.17803 91.892 7.59091C92.1193 8.00379 92.233 8.55682 92.233 9.25V15H90.892V13.8182H90.8239C90.733 14.0076 90.5814 14.2102 90.3693 14.4261C90.1572 14.642 89.875 14.8258 89.5227 14.9773C89.1705 15.1288 88.7405 15.2045 88.233 15.2045ZM88.4375 14C88.9678 14 89.4148 13.8958 89.7784 13.6875C90.1458 13.4792 90.4223 13.2102 90.608 12.8807C90.7973 12.5511 90.892 12.2045 90.892 11.8409V10.6136C90.8352 10.6818 90.7102 10.7443 90.517 10.8011C90.3277 10.8542 90.108 10.9015 89.858 10.9432C89.6117 10.9811 89.3712 11.0152 89.1364 11.0455C88.9053 11.072 88.7178 11.0947 88.5739 11.1136C88.2254 11.1591 87.8996 11.233 87.5966 11.3352C87.2973 11.4337 87.0549 11.5833 86.8693 11.7841C86.6875 11.9811 86.5966 12.25 86.5966 12.5909C86.5966 13.0568 86.7689 13.4091 87.1136 13.6477C87.4621 13.8826 87.9034 14 88.4375 14ZM96.0213 3.36364V15H94.6804V3.36364H96.0213ZM99.8182 3.36364V15H98.4773V3.36364H99.8182Z" fill="#040404"/>
</g>
<g filter="url(#filter3_d_16_29)">
<path d="M23 119H17V113H15V119H9V121H15V127H17V121H23V119Z" fill="black"/>
</g>
<g filter="url(#filter4_d_16_29)">
<line x1="4" y1="88.5" x2="223" y2="88.5" stroke="black"/>
</g>
<defs>
<filter id="filter0_d_16_29" x="25.321" y="113.75" width="95.3713" height="19.4418" filterUnits="userSpaceOnUse" color-interpolation-filters="sRGB">
<feFlood flood-opacity="0" result="BackgroundImageFix"/>
<feColorMatrix in="SourceAlpha" type="matrix" values="0 0 0 0 0 0 0 0 0 0 0 0 0 0 0 0 0 0 127 0" result="hardAlpha"/>
<feOffset dy="4"/>
<feGaussianBlur stdDeviation="2"/>
<feComposite in2="hardAlpha" operator="out"/>
<feColorMatrix type="matrix" values="0 0 0 0 0 0 0 0 0 0 0 0 0 0 0 0 0 0 0.25 0"/>
<feBlend mode="normal" in2="BackgroundImageFix" result="effect1_dropShadow_16_29"/>
<feBlend mode="normal" in="SourceGraphic" in2="effect1_dropShadow_16_29" result="shape"/>
</filter>
<filter id="filter1_d_16_29" x="6.40909" y="35.3636" width="74.2415" height="22.9091" filterUnits="userSpaceOnUse" color-interpolation-filters="sRGB">
<feFlood flood-opacity="0" result="BackgroundImageFix"/>
<feColorMatrix in="SourceAlpha" type="matrix" values="0 0 0 0 0 0 0 0 0 0 0 0 0 0 0 0 0 0 127 0" result="hardAlpha"/>
<feOffset dy="4"/>
<feGaussianBlur stdDeviation="2"/>
<feComposite in2="hardAlpha" operator="out"/>
<feColorMatrix type="matrix" values="0 0 0 0 0 0 0 0 0 0 0 0 0 0 0 0 0 0 0.25 0"/>
<feBlend mode="normal" in2="BackgroundImageFix" result="effect1_dropShadow_16_29"/>
<feBlend mode="normal" in="SourceGraphic" in2="effect1_dropShadow_16_29" result="shape"/>
</filter>
<filter id="filter2_d_16_29" x="6.40909" y="3" width="97.4091" height="23.4546" filterUnits="userSpaceOnUse" color-interpolation-filters="sRGB">
<feFlood flood-opacity="0" result="BackgroundImageFix"/>
<feColorMatrix in="SourceAlpha" type="matrix" values="0 0 0 0 0 0 0 0 0 0 0 0 0 0 0 0 0 0 127 0" result="hardAlpha"/>
<feOffset dy="4"/>
<feGaussianBlur stdDeviation="2"/>
<feComposite in2="hardAlpha" operator="out"/>
<feColorMatrix type="matrix" values="0 0 0 0 0 0 0 0 0 0 0 0 0 0 0 0 0 0 0.25 0"/>
<feBlend mode="normal" in2="BackgroundImageFix" result="effect1_dropShadow_16_29"/>
<feBlend mode="normal" in="SourceGraphic" in2="effect1_dropShadow_16_29" result="shape"/>
</filter>
<filter id="filter3_d_16_29" x="5" y="113" width="22" height="22" filterUnits="userSpaceOnUse" color-interpolation-filters="sRGB">
<feFlood flood-opacity="0" result="BackgroundImageFix"/>
<feColorMatrix in="SourceAlpha" type="matrix" values="0 0 0 0 0 0 0 0 0 0 0 0 0 0 0 0 0 0 127 0" result="hardAlpha"/>
<feOffset dy="4"/>
<feGaussianBlur stdDeviation="2"/>
<feComposite in2="hardAlpha" operator="out"/>
<feColorMatrix type="matrix" values="0 0 0 0 0 0 0 0 0 0 0 0 0 0 0 0 0 0 0.25 0"/>
<feBlend mode="normal" in2="BackgroundImageFix" result="effect1_dropShadow_16_29"/>
<feBlend mode="normal" in="SourceGraphic" in2="effect1_dropShadow_16_29" result="shape"/>
</filter>
<filter id="filter4_d_16_29" x="0" y="88" width="227" height="9" filterUnits="userSpaceOnUse" color-interpolation-filters="sRGB">
<feFlood flood-opacity="0" result="BackgroundImageFix"/>
<feColorMatrix in="SourceAlpha" type="matrix" values="0 0 0 0 0 0 0 0 0 0 0 0 0 0 0 0 0 0 127 0" result="hardAlpha"/>
<feOffset dy="4"/>
<feGaussianBlur stdDeviation="2"/>
<feComposite in2="hardAlpha" operator="out"/>
<feColorMatrix type="matrix" values="0 0 0 0 0 0 0 0 0 0 0 0 0 0 0 0 0 0 0.25 0"/>
<feBlend mode="normal" in2="BackgroundImageFix" result="effect1_dropShadow_16_29"/>
<feBlend mode="normal" in="SourceGraphic" in2="effect1_dropShadow_16_29" result="shape"/>
</filter>
</defs>
</svg>
