<svg width="138" height="28" viewBox="0 0 138 28" fill="none" xmlns="http://www.w3.org/2000/svg">
<g filter="url(#filter0_d_7_28)">
<path d="M4.21591 2.01705V0.454545H15.125V2.01705H10.5511V15H8.78977V2.01705H4.21591ZM19.342 15.2557C18.6507 15.2557 18.0233 15.1255 17.4599 14.8651C16.8964 14.5999 16.449 14.2188 16.1175 13.7216C15.7861 13.2197 15.6204 12.6136 15.6204 11.9034C15.6204 11.2784 15.7435 10.7718 15.9897 10.3835C16.2359 9.99053 16.565 9.68276 16.9769 9.46023C17.3888 9.23769 17.8434 9.07197 18.3406 8.96307C18.8424 8.84943 19.3467 8.75947 19.8533 8.69318C20.5162 8.60795 21.0536 8.54403 21.4656 8.50142C21.8822 8.45407 22.1853 8.37595 22.3746 8.26705C22.5688 8.15814 22.6658 7.96875 22.6658 7.69886V7.64205C22.6658 6.94129 22.4741 6.39678 22.0906 6.00852C21.7118 5.62027 21.1365 5.42614 20.3647 5.42614C19.5645 5.42614 18.9371 5.60133 18.4826 5.9517C18.0281 6.30208 17.7085 6.67614 17.5238 7.07386L15.9329 6.50568C16.217 5.8428 16.5958 5.3267 17.0692 4.95739C17.5475 4.58333 18.0683 4.32292 18.6317 4.17614C19.1999 4.02462 19.7586 3.94886 20.3079 3.94886C20.6583 3.94886 21.0607 3.99148 21.5153 4.0767C21.9746 4.1572 22.4173 4.32528 22.8434 4.58097C23.2743 4.83665 23.6317 5.22254 23.9158 5.73864C24.1999 6.25473 24.342 6.94602 24.342 7.8125V15H22.6658V13.5227H22.5806C22.467 13.7595 22.2776 14.0128 22.0124 14.2827C21.7473 14.5526 21.3945 14.7822 20.9542 14.9716C20.5138 15.161 19.9764 15.2557 19.342 15.2557ZM19.5977 13.75C20.2605 13.75 20.8192 13.6198 21.2738 13.3594C21.7331 13.099 22.0787 12.7628 22.3107 12.3509C22.5475 11.9389 22.6658 11.5057 22.6658 11.0511V9.51705C22.5948 9.60227 22.4386 9.6804 22.1971 9.75142C21.9603 9.81771 21.6857 9.87689 21.3732 9.92898C21.0655 9.97633 20.7648 10.0189 20.4712 10.0568C20.1824 10.09 19.948 10.1184 19.7681 10.142C19.3325 10.1989 18.9253 10.2912 18.5465 10.419C18.1725 10.5421 17.8694 10.7292 17.6374 10.9801C17.4102 11.2263 17.2965 11.5625 17.2965 11.9886C17.2965 12.571 17.512 13.0114 17.9428 13.3097C18.3784 13.6032 18.93 13.75 19.5977 13.75ZM29.0774 0.454545V15H27.4013V0.454545H29.0774ZM33.7099 11.0227L33.6815 8.94886H34.0224L38.7951 4.09091H40.869L35.7837 9.23295H35.6417L33.7099 11.0227ZM32.1474 15V0.454545H33.8235V15H32.1474ZM39.0792 15L34.8178 9.60227L36.011 8.4375L41.2099 15H39.0792ZM43.0263 15V4.09091H44.7024V15H43.0263ZM43.8786 2.27273C43.5518 2.27273 43.2701 2.16146 43.0334 1.93892C42.8014 1.71638 42.6854 1.44886 42.6854 1.13636C42.6854 0.823864 42.8014 0.556345 43.0334 0.333806C43.2701 0.111269 43.5518 0 43.8786 0C44.2053 0 44.4846 0.111269 44.7166 0.333806C44.9534 0.556345 45.0717 0.823864 45.0717 1.13636C45.0717 1.44886 44.9534 1.71638 44.7166 1.93892C44.4846 2.16146 44.2053 2.27273 43.8786 2.27273ZM49.4485 8.4375V15H47.7724V4.09091H49.3917V5.79545H49.5337C49.7894 5.24148 50.1777 4.7964 50.6985 4.46023C51.2193 4.11932 51.8917 3.94886 52.7156 3.94886C53.4542 3.94886 54.1005 4.10038 54.6545 4.40341C55.2085 4.7017 55.6393 5.15625 55.9471 5.76705C56.2549 6.37311 56.4087 7.14015 56.4087 8.06818V15H54.7326V8.18182C54.7326 7.32481 54.5101 6.6572 54.065 6.17898C53.6199 5.69602 53.0091 5.45455 52.2326 5.45455C51.6976 5.45455 51.2193 5.57055 50.7979 5.80256C50.3813 6.03456 50.0522 6.37311 49.8107 6.81818C49.5692 7.26326 49.4485 7.80303 49.4485 8.4375ZM63.875 19.3182C63.0653 19.3182 62.3693 19.214 61.7869 19.0057C61.2045 18.8021 60.7192 18.5322 60.331 18.196C59.9474 17.8646 59.642 17.5095 59.4148 17.1307L60.75 16.1932C60.9015 16.392 61.0933 16.6193 61.3253 16.875C61.5573 17.1354 61.8745 17.3603 62.277 17.5497C62.6842 17.7438 63.2169 17.8409 63.875 17.8409C64.7557 17.8409 65.4825 17.6278 66.0554 17.2017C66.6283 16.7756 66.9148 16.108 66.9148 15.1989V12.983H66.7727C66.6496 13.1818 66.4744 13.428 66.2472 13.7216C66.0246 14.0104 65.7027 14.2685 65.2812 14.4957C64.8646 14.7183 64.3011 14.8295 63.5909 14.8295C62.7102 14.8295 61.9195 14.6212 61.2188 14.2045C60.5227 13.7879 59.9711 13.1818 59.5639 12.3864C59.1615 11.5909 58.9602 10.625 58.9602 9.48864C58.9602 8.37121 59.1567 7.3982 59.5497 6.5696C59.9427 5.73627 60.4896 5.09233 61.1903 4.63778C61.8911 4.1785 62.7008 3.94886 63.6193 3.94886C64.3295 3.94886 64.893 4.06723 65.3097 4.30398C65.7311 4.53598 66.053 4.80114 66.2756 5.09943C66.5028 5.39299 66.678 5.63447 66.8011 5.82386H66.9716V4.09091H68.5909V15.3125C68.5909 16.25 68.3778 17.0123 67.9517 17.5994C67.5303 18.1913 66.9621 18.6245 66.2472 18.8991C65.5369 19.1785 64.7462 19.3182 63.875 19.3182ZM63.8182 13.3239C64.4905 13.3239 65.0587 13.17 65.5227 12.8622C65.9867 12.5545 66.3395 12.1117 66.581 11.5341C66.8224 10.9564 66.9432 10.2652 66.9432 9.46023C66.9432 8.67424 66.8248 7.98059 66.5881 7.37926C66.3513 6.77794 66.0009 6.30682 65.5369 5.96591C65.0729 5.625 64.5 5.45455 63.8182 5.45455C63.108 5.45455 62.5161 5.63447 62.0426 5.99432C61.5739 6.35417 61.2211 6.83712 60.9844 7.44318C60.7524 8.04924 60.6364 8.72159 60.6364 9.46023C60.6364 10.2178 60.7547 10.8878 60.9915 11.4702C61.233 12.0478 61.5881 12.5024 62.0568 12.8338C62.5303 13.1605 63.1174 13.3239 63.8182 13.3239ZM77.5114 15V0.454545H82.4261C83.5672 0.454545 84.5 0.660511 85.2244 1.07244C85.9536 1.47964 86.4934 2.03125 86.8438 2.72727C87.1941 3.4233 87.3693 4.19981 87.3693 5.05682C87.3693 5.91383 87.1941 6.69271 86.8438 7.39347C86.4981 8.09422 85.9631 8.65294 85.2386 9.0696C84.5142 9.48153 83.5862 9.6875 82.4545 9.6875H78.9318V8.125H82.3977C83.179 8.125 83.8063 7.99006 84.2798 7.72017C84.7533 7.45028 85.0966 7.0857 85.3097 6.62642C85.5275 6.16241 85.6364 5.6392 85.6364 5.05682C85.6364 4.47443 85.5275 3.9536 85.3097 3.49432C85.0966 3.03504 84.7509 2.67519 84.2727 2.41477C83.7945 2.14962 83.16 2.01705 82.3693 2.01705H79.2727V15H77.5114ZM94.294 15.2273C93.3092 15.2273 92.4451 14.9929 91.7017 14.5241C90.9631 14.0554 90.3854 13.3996 89.9688 12.5568C89.5568 11.714 89.3509 10.7292 89.3509 9.60227C89.3509 8.46591 89.5568 7.47396 89.9688 6.62642C90.3854 5.77888 90.9631 5.12074 91.7017 4.65199C92.4451 4.18324 93.3092 3.94886 94.294 3.94886C95.2789 3.94886 96.1406 4.18324 96.8793 4.65199C97.6226 5.12074 98.2003 5.77888 98.6122 6.62642C99.0289 7.47396 99.2372 8.46591 99.2372 9.60227C99.2372 10.7292 99.0289 11.714 98.6122 12.5568C98.2003 13.3996 97.6226 14.0554 96.8793 14.5241C96.1406 14.9929 95.2789 15.2273 94.294 15.2273ZM94.294 13.7216C95.0421 13.7216 95.6577 13.5298 96.1406 13.1463C96.6236 12.7628 96.9811 12.2585 97.2131 11.6335C97.4451 11.0085 97.5611 10.3314 97.5611 9.60227C97.5611 8.87311 97.4451 8.19366 97.2131 7.56392C96.9811 6.93419 96.6236 6.42519 96.1406 6.03693C95.6577 5.64867 95.0421 5.45455 94.294 5.45455C93.5459 5.45455 92.9304 5.64867 92.4474 6.03693C91.9645 6.42519 91.607 6.93419 91.375 7.56392C91.143 8.19366 91.027 8.87311 91.027 9.60227C91.027 10.3314 91.143 11.0085 91.375 11.6335C91.607 12.2585 91.9645 12.7628 92.4474 13.1463C92.9304 13.5298 93.5459 13.7216 94.294 13.7216ZM101.796 15V4.09091H103.472V15H101.796ZM102.648 2.27273C102.321 2.27273 102.04 2.16146 101.803 1.93892C101.571 1.71638 101.455 1.44886 101.455 1.13636C101.455 0.823864 101.571 0.556345 101.803 0.333806C102.04 0.111269 102.321 0 102.648 0C102.975 0 103.254 0.111269 103.486 0.333806C103.723 0.556345 103.841 0.823864 103.841 1.13636C103.841 1.44886 103.723 1.71638 103.486 1.93892C103.254 2.16146 102.975 2.27273 102.648 2.27273ZM108.218 8.4375V15H106.542V4.09091H108.161V5.79545H108.303C108.559 5.24148 108.947 4.7964 109.468 4.46023C109.989 4.11932 110.661 3.94886 111.485 3.94886C112.224 3.94886 112.87 4.10038 113.424 4.40341C113.978 4.7017 114.409 5.15625 114.717 5.76705C115.024 6.37311 115.178 7.14015 115.178 8.06818V15H113.502V8.18182C113.502 7.32481 113.28 6.6572 112.835 6.17898C112.389 5.69602 111.779 5.45455 111.002 5.45455C110.467 5.45455 109.989 5.57055 109.567 5.80256C109.151 6.03456 108.822 6.37311 108.58 6.81818C108.339 7.26326 108.218 7.80303 108.218 8.4375ZM122.985 4.09091V5.51136H117.332V4.09091H122.985ZM118.98 1.47727H120.656V11.875C120.656 12.3485 120.725 12.7036 120.862 12.9403C121.004 13.1723 121.184 13.3286 121.402 13.4091C121.624 13.4848 121.859 13.5227 122.105 13.5227C122.289 13.5227 122.441 13.5133 122.559 13.4943C122.678 13.4706 122.772 13.4517 122.843 13.4375L123.184 14.9432C123.071 14.9858 122.912 15.0284 122.708 15.071C122.505 15.1184 122.247 15.142 121.934 15.142C121.461 15.142 120.997 15.0402 120.542 14.8366C120.092 14.633 119.718 14.3229 119.42 13.9062C119.127 13.4896 118.98 12.964 118.98 12.3295V1.47727ZM133.039 6.53409L131.533 6.96023C131.438 6.70928 131.299 6.46544 131.114 6.22869C130.934 5.98722 130.688 5.78835 130.375 5.6321C130.063 5.47585 129.663 5.39773 129.175 5.39773C128.507 5.39773 127.951 5.55161 127.506 5.85938C127.066 6.16241 126.846 6.5483 126.846 7.01705C126.846 7.43371 126.997 7.76278 127.3 8.00426C127.603 8.24574 128.077 8.44697 128.721 8.60795L130.34 9.00568C131.315 9.24242 132.042 9.60464 132.52 10.0923C132.998 10.5753 133.238 11.1979 133.238 11.9602C133.238 12.5852 133.058 13.1439 132.698 13.6364C132.343 14.1288 131.846 14.517 131.206 14.8011C130.567 15.0852 129.824 15.2273 128.976 15.2273C127.864 15.2273 126.943 14.9858 126.213 14.5028C125.484 14.0199 125.023 13.3144 124.828 12.3864L126.419 11.9886C126.571 12.5758 126.857 13.0161 127.279 13.3097C127.705 13.6032 128.261 13.75 128.948 13.75C129.729 13.75 130.349 13.5843 130.809 13.2528C131.273 12.9167 131.505 12.5142 131.505 12.0455C131.505 11.6667 131.372 11.3494 131.107 11.0938C130.842 10.8333 130.435 10.6392 129.885 10.5114L128.067 10.0852C127.068 9.84848 126.334 9.48153 125.865 8.98438C125.401 8.48248 125.169 7.85511 125.169 7.10227C125.169 6.48674 125.342 5.94223 125.688 5.46875C126.038 4.99527 126.514 4.62358 127.115 4.35369C127.721 4.08381 128.408 3.94886 129.175 3.94886C130.255 3.94886 131.102 4.18561 131.718 4.65909C132.338 5.13258 132.778 5.75758 133.039 6.53409Z" fill="black"/>
</g>
<defs>
<filter id="filter0_d_7_28" x="0.215912" y="0" width="137.022" height="27.3182" filterUnits="userSpaceOnUse" color-interpolation-filters="sRGB">
<feFlood flood-opacity="0" result="BackgroundImageFix"/>
<feColorMatrix in="SourceAlpha" type="matrix" values="0 0 0 0 0 0 0 0 0 0 0 0 0 0 0 0 0 0 127 0" result="hardAlpha"/>
<feOffset dy="4"/>
<feGaussianBlur stdDeviation="2"/>
<feComposite in2="hardAlpha" operator="out"/>
<feColorMatrix type="matrix" values="0 0 0 0 0 0 0 0 0 0 0 0 0 0 0 0 0 0 0.25 0"/>
<feBlend mode="normal" in2="BackgroundImageFix" result="effect1_dropShadow_7_28"/>
<feBlend mode="normal" in="SourceGraphic" in2="effect1_dropShadow_7_28" result="shape"/>
</filter>
</defs>
</svg>
