<svg width="212" height="39" viewBox="0 0 212 39" fill="none" xmlns="http://www.w3.org/2000/svg">
<path d="M0.295455 10.7273V3.09091H30.6364V10.7273H20.1364V38H10.7955V10.7273H0.295455ZM38.0724 38.4091C36.402 38.4091 34.9247 38.1364 33.6406 37.5909C32.3679 37.0341 31.3679 36.1932 30.6406 35.0682C29.9134 33.9432 29.5497 32.5114 29.5497 30.7727C29.5497 29.3409 29.794 28.1193 30.2827 27.108C30.7713 26.0852 31.4531 25.25 32.3281 24.6023C33.2031 23.9545 34.2202 23.4602 35.3793 23.1193C36.5497 22.7784 37.8111 22.5568 39.1634 22.4545C40.6293 22.3409 41.8054 22.2045 42.6918 22.0455C43.5895 21.875 44.2372 21.642 44.6349 21.3466C45.0327 21.0398 45.2315 20.6364 45.2315 20.1364V20.0682C45.2315 19.3864 44.9702 18.8636 44.4474 18.5C43.9247 18.1364 43.2543 17.9545 42.4361 17.9545C41.5384 17.9545 40.8054 18.1534 40.2372 18.5511C39.6804 18.9375 39.3452 19.5341 39.2315 20.3409H30.5724C30.6861 18.75 31.1918 17.2841 32.0895 15.9432C32.9986 14.5909 34.3224 13.5114 36.0611 12.7045C37.7997 11.8864 39.9702 11.4773 42.5724 11.4773C44.4474 11.4773 46.1293 11.6989 47.6179 12.142C49.1065 12.5739 50.3736 13.1818 51.419 13.9659C52.4645 14.7386 53.2599 15.6477 53.8054 16.6932C54.3622 17.7273 54.6406 18.8523 54.6406 20.0682V38H45.8452V34.3182H45.6406C45.1179 35.2955 44.4815 36.0852 43.7315 36.6875C42.9929 37.2898 42.1463 37.7273 41.1918 38C40.2486 38.2727 39.2088 38.4091 38.0724 38.4091ZM41.1406 32.4773C41.8565 32.4773 42.527 32.3295 43.152 32.0341C43.7884 31.7386 44.3054 31.3125 44.7031 30.7557C45.1009 30.1989 45.2997 29.5227 45.2997 28.7273V26.5455C45.0497 26.6477 44.7827 26.7443 44.4986 26.8352C44.2259 26.9261 43.9304 27.0114 43.6122 27.0909C43.3054 27.1705 42.9759 27.2443 42.6236 27.3125C42.2827 27.3807 41.9247 27.4432 41.5497 27.5C40.8224 27.6136 40.2259 27.8011 39.7599 28.0625C39.3054 28.3125 38.9645 28.625 38.7372 29C38.5213 29.3636 38.4134 29.7727 38.4134 30.2273C38.4134 30.9545 38.669 31.5114 39.1804 31.8977C39.6918 32.2841 40.3452 32.4773 41.1406 32.4773ZM83.0682 20.3409H74.4091C74.3636 19.8068 74.1761 19.3466 73.8466 18.9602C73.517 18.5739 73.0909 18.2784 72.5682 18.0739C72.0568 17.858 71.4886 17.75 70.8636 17.75C70.0568 17.75 69.3636 17.8977 68.7841 18.1932C68.2045 18.4886 67.9205 18.9091 67.9318 19.4545C67.9205 19.8409 68.0852 20.1989 68.4261 20.5284C68.7784 20.858 69.4545 21.1136 70.4545 21.2955L75.7727 22.25C78.4545 22.7386 80.4489 23.5625 81.7557 24.7216C83.0739 25.8693 83.7386 27.4091 83.75 29.3409C83.7386 31.2045 83.1818 32.8239 82.0795 34.1989C80.9886 35.5625 79.4943 36.6193 77.5966 37.3693C75.7102 38.108 73.5568 38.4773 71.1364 38.4773C67.1364 38.4773 64.0057 37.6591 61.7443 36.0227C59.4943 34.3864 58.2386 32.2273 57.9773 29.5455H67.3182C67.4432 30.375 67.8523 31.017 68.5455 31.4716C69.25 31.9148 70.1364 32.1364 71.2045 32.1364C72.0682 32.1364 72.7784 31.9886 73.3352 31.6932C73.9034 31.3977 74.1932 30.9773 74.2045 30.4318C74.1932 29.9318 73.9432 29.5341 73.4545 29.2386C72.9773 28.9432 72.2273 28.7045 71.2045 28.5227L66.5682 27.7045C63.8977 27.2386 61.8977 26.3523 60.5682 25.0455C59.2386 23.7386 58.5795 22.0568 58.5909 20C58.5795 18.1818 59.0568 16.642 60.0227 15.3807C61 14.108 62.392 13.142 64.1989 12.483C66.017 11.8125 68.1705 11.4773 70.6591 11.4773C74.4432 11.4773 77.4261 12.2614 79.608 13.8295C81.8011 15.3977 82.9545 17.5682 83.0682 20.3409ZM95.8097 31.7955L95.8778 20.6136H97.1051L103.446 11.8182H114.014L103.378 25.5227H100.719L95.8097 31.7955ZM87.3551 38V3.09091H96.7642V38H87.3551ZM103.514 38L97.5142 27.6364L103.651 20.9545L114.287 38H103.514ZM125.891 38V3.09091H135.368V30.3636H149.482V38H125.891ZM153.449 38V11.8182H162.858V38H153.449ZM158.153 9.09091C156.881 9.09091 155.79 8.67045 154.881 7.82955C153.972 6.98864 153.517 5.97727 153.517 4.79545C153.517 3.61364 153.972 2.60227 154.881 1.76136C155.79 0.920454 156.881 0.5 158.153 0.5C159.438 0.5 160.528 0.920454 161.426 1.76136C162.335 2.60227 162.79 3.61364 162.79 4.79545C162.79 5.97727 162.335 6.98864 161.426 7.82955C160.528 8.67045 159.438 9.09091 158.153 9.09091ZM191.584 20.3409H182.925C182.879 19.8068 182.692 19.3466 182.362 18.9602C182.033 18.5739 181.607 18.2784 181.084 18.0739C180.572 17.858 180.004 17.75 179.379 17.75C178.572 17.75 177.879 17.8977 177.3 18.1932C176.72 18.4886 176.436 18.9091 176.447 19.4545C176.436 19.8409 176.601 20.1989 176.942 20.5284C177.294 20.858 177.97 21.1136 178.97 21.2955L184.288 22.25C186.97 22.7386 188.964 23.5625 190.271 24.7216C191.589 25.8693 192.254 27.4091 192.266 29.3409C192.254 31.2045 191.697 32.8239 190.595 34.1989C189.504 35.5625 188.01 36.6193 186.112 37.3693C184.226 38.108 182.072 38.4773 179.652 38.4773C175.652 38.4773 172.521 37.6591 170.26 36.0227C168.01 34.3864 166.754 32.2273 166.493 29.5455H175.834C175.959 30.375 176.368 31.017 177.061 31.4716C177.766 31.9148 178.652 32.1364 179.72 32.1364C180.584 32.1364 181.294 31.9886 181.851 31.6932C182.419 31.3977 182.709 30.9773 182.72 30.4318C182.709 29.9318 182.459 29.5341 181.97 29.2386C181.493 28.9432 180.743 28.7045 179.72 28.5227L175.084 27.7045C172.413 27.2386 170.413 26.3523 169.084 25.0455C167.754 23.7386 167.095 22.0568 167.107 20C167.095 18.1818 167.572 16.642 168.538 15.3807C169.516 14.108 170.908 13.142 172.714 12.483C174.533 11.8125 176.686 11.4773 179.175 11.4773C182.959 11.4773 185.942 12.2614 188.124 13.8295C190.317 15.3977 191.47 17.5682 191.584 20.3409ZM211.484 11.8182V18.6364H194.234V11.8182H211.484ZM197.575 5.54545H206.984V29.5795C206.984 29.9432 207.047 30.25 207.172 30.5C207.297 30.7386 207.49 30.9205 207.751 31.0455C208.013 31.1591 208.348 31.2159 208.757 31.2159C209.041 31.2159 209.371 31.1818 209.746 31.1136C210.132 31.0455 210.416 30.9886 210.598 30.9432L211.962 37.5568C211.541 37.6818 210.939 37.8352 210.155 38.017C209.382 38.1989 208.462 38.3182 207.393 38.375C205.234 38.4886 203.422 38.267 201.956 37.7102C200.49 37.142 199.388 36.25 198.649 35.0341C197.911 33.8182 197.553 32.2955 197.575 30.4659V5.54545Z" fill="black"/>
</svg>
