<svg width="246" height="39" viewBox="0 0 246 39" fill="none" xmlns="http://www.w3.org/2000/svg">
<g filter="url(#filter0_d_3_133)">
<path d="M11.0455 24L4.68182 0.727272H7.54545L12.4091 19.6818H12.6364L17.5909 0.727272H20.7727L25.7273 19.6818H25.9545L30.8182 0.727272H33.6818L27.3182 24H24.4091L19.2727 5.45454H19.0909L13.9545 24H11.0455ZM42.5227 24.3636C40.8409 24.3636 39.3902 23.9924 38.1705 23.25C36.9583 22.5 36.0227 21.4545 35.3636 20.1136C34.7121 18.7652 34.3864 17.197 34.3864 15.4091C34.3864 13.6212 34.7121 12.0455 35.3636 10.6818C36.0227 9.31061 36.9394 8.24242 38.1136 7.47727C39.2955 6.70455 40.6742 6.31818 42.25 6.31818C43.1591 6.31818 44.0568 6.4697 44.9432 6.77273C45.8295 7.07576 46.6364 7.56818 47.3636 8.25C48.0909 8.92424 48.6705 9.81818 49.1023 10.9318C49.5341 12.0455 49.75 13.4167 49.75 15.0455V16.1818H36.2955V13.8636H47.0227C47.0227 12.8788 46.8258 12 46.4318 11.2273C46.0455 10.4545 45.4924 9.8447 44.7727 9.39773C44.0606 8.95076 43.2197 8.72727 42.25 8.72727C41.1818 8.72727 40.2576 8.99242 39.4773 9.52273C38.7045 10.0455 38.1098 10.7273 37.6932 11.5682C37.2765 12.4091 37.0682 13.3106 37.0682 14.2727V15.8182C37.0682 17.1364 37.2955 18.2538 37.75 19.1705C38.2121 20.0795 38.8523 20.7727 39.6705 21.25C40.4886 21.7197 41.4394 21.9545 42.5227 21.9545C43.2273 21.9545 43.8636 21.8561 44.4318 21.6591C45.0076 21.4545 45.5038 21.1515 45.9205 20.75C46.3371 20.3409 46.6591 19.8333 46.8864 19.2273L49.4773 19.9545C49.2045 20.8333 48.7462 21.6061 48.1023 22.2727C47.4583 22.9318 46.6629 23.447 45.7159 23.8182C44.7689 24.1818 43.7045 24.3636 42.5227 24.3636ZM61.1477 24.3636C59.4659 24.3636 58.0152 23.9924 56.7955 23.25C55.5833 22.5 54.6477 21.4545 53.9886 20.1136C53.3371 18.7652 53.0114 17.197 53.0114 15.4091C53.0114 13.6212 53.3371 12.0455 53.9886 10.6818C54.6477 9.31061 55.5644 8.24242 56.7386 7.47727C57.9205 6.70455 59.2992 6.31818 60.875 6.31818C61.7841 6.31818 62.6818 6.4697 63.5682 6.77273C64.4545 7.07576 65.2614 7.56818 65.9886 8.25C66.7159 8.92424 67.2955 9.81818 67.7273 10.9318C68.1591 12.0455 68.375 13.4167 68.375 15.0455V16.1818H54.9205V13.8636H65.6477C65.6477 12.8788 65.4508 12 65.0568 11.2273C64.6705 10.4545 64.1174 9.8447 63.3977 9.39773C62.6856 8.95076 61.8447 8.72727 60.875 8.72727C59.8068 8.72727 58.8826 8.99242 58.1023 9.52273C57.3295 10.0455 56.7348 10.7273 56.3182 11.5682C55.9015 12.4091 55.6932 13.3106 55.6932 14.2727V15.8182C55.6932 17.1364 55.9205 18.2538 56.375 19.1705C56.8371 20.0795 57.4773 20.7727 58.2955 21.25C59.1136 21.7197 60.0644 21.9545 61.1477 21.9545C61.8523 21.9545 62.4886 21.8561 63.0568 21.6591C63.6326 21.4545 64.1288 21.1515 64.5455 20.75C64.9621 20.3409 65.2841 19.8333 65.5114 19.2273L68.1023 19.9545C67.8295 20.8333 67.3712 21.6061 66.7273 22.2727C66.0833 22.9318 65.2879 23.447 64.3409 23.8182C63.3939 24.1818 62.3295 24.3636 61.1477 24.3636ZM74.9545 17.6364L74.9091 14.3182H75.4545L83.0909 6.54545H86.4091L78.2727 14.7727H78.0455L74.9545 17.6364ZM72.4545 24V0.727272H75.1364V24H72.4545ZM83.5455 24L76.7273 15.3636L78.6364 13.5L86.9545 24H83.5455ZM92.5426 0.727272V24H89.8608V0.727272H92.5426ZM99.1818 30.5455C98.7273 30.5455 98.322 30.5076 97.9659 30.4318C97.6098 30.3636 97.3636 30.2955 97.2273 30.2273L97.9091 27.8636C98.5606 28.0303 99.1364 28.0909 99.6364 28.0455C100.136 28 100.58 27.7765 100.966 27.375C101.36 26.9811 101.72 26.3409 102.045 25.4545L102.545 24.0909L96.0909 6.54545H99L103.818 20.4545H104L108.818 6.54545H111.727L104.318 26.5455C103.985 27.447 103.572 28.1932 103.08 28.7841C102.587 29.3826 102.015 29.8258 101.364 30.1136C100.72 30.4015 99.9924 30.5455 99.1818 30.5455ZM124.267 24V6.54545H126.858V9.27273H127.085C127.449 8.34091 128.036 7.61742 128.847 7.10227C129.657 6.57955 130.631 6.31818 131.767 6.31818C132.919 6.31818 133.877 6.57955 134.642 7.10227C135.415 7.61742 136.017 8.34091 136.449 9.27273H136.631C137.078 8.37121 137.748 7.6553 138.642 7.125C139.536 6.58712 140.608 6.31818 141.858 6.31818C143.419 6.31818 144.695 6.80682 145.688 7.78409C146.68 8.75379 147.176 10.2652 147.176 12.3182V24H144.494V12.3182C144.494 11.0303 144.142 10.1098 143.438 9.55682C142.733 9.00379 141.903 8.72727 140.949 8.72727C139.722 8.72727 138.771 9.09848 138.097 9.84091C137.422 10.5758 137.085 11.5076 137.085 12.6364V24H134.358V12.0455C134.358 11.053 134.036 10.2538 133.392 9.64773C132.748 9.03409 131.919 8.72727 130.903 8.72727C130.206 8.72727 129.555 8.91288 128.949 9.28409C128.35 9.6553 127.866 10.1705 127.494 10.8295C127.131 11.4811 126.949 12.2348 126.949 13.0909V24H124.267ZM159.398 24.3636C157.716 24.3636 156.265 23.9924 155.045 23.25C153.833 22.5 152.898 21.4545 152.239 20.1136C151.587 18.7652 151.261 17.197 151.261 15.4091C151.261 13.6212 151.587 12.0455 152.239 10.6818C152.898 9.31061 153.814 8.24242 154.989 7.47727C156.17 6.70455 157.549 6.31818 159.125 6.31818C160.034 6.31818 160.932 6.4697 161.818 6.77273C162.705 7.07576 163.511 7.56818 164.239 8.25C164.966 8.92424 165.545 9.81818 165.977 10.9318C166.409 12.0455 166.625 13.4167 166.625 15.0455V16.1818H153.17V13.8636H163.898C163.898 12.8788 163.701 12 163.307 11.2273C162.92 10.4545 162.367 9.8447 161.648 9.39773C160.936 8.95076 160.095 8.72727 159.125 8.72727C158.057 8.72727 157.133 8.99242 156.352 9.52273C155.58 10.0455 154.985 10.7273 154.568 11.5682C154.152 12.4091 153.943 13.3106 153.943 14.2727V15.8182C153.943 17.1364 154.17 18.2538 154.625 19.1705C155.087 20.0795 155.727 20.7727 156.545 21.25C157.364 21.7197 158.314 21.9545 159.398 21.9545C160.102 21.9545 160.739 21.8561 161.307 21.6591C161.883 21.4545 162.379 21.1515 162.795 20.75C163.212 20.3409 163.534 19.8333 163.761 19.2273L166.352 19.9545C166.08 20.8333 165.621 21.6061 164.977 22.2727C164.333 22.9318 163.538 23.447 162.591 23.8182C161.644 24.1818 160.58 24.3636 159.398 24.3636ZM178.023 24.3636C176.341 24.3636 174.89 23.9924 173.67 23.25C172.458 22.5 171.523 21.4545 170.864 20.1136C170.212 18.7652 169.886 17.197 169.886 15.4091C169.886 13.6212 170.212 12.0455 170.864 10.6818C171.523 9.31061 172.439 8.24242 173.614 7.47727C174.795 6.70455 176.174 6.31818 177.75 6.31818C178.659 6.31818 179.557 6.4697 180.443 6.77273C181.33 7.07576 182.136 7.56818 182.864 8.25C183.591 8.92424 184.17 9.81818 184.602 10.9318C185.034 12.0455 185.25 13.4167 185.25 15.0455V16.1818H171.795V13.8636H182.523C182.523 12.8788 182.326 12 181.932 11.2273C181.545 10.4545 180.992 9.8447 180.273 9.39773C179.561 8.95076 178.72 8.72727 177.75 8.72727C176.682 8.72727 175.758 8.99242 174.977 9.52273C174.205 10.0455 173.61 10.7273 173.193 11.5682C172.777 12.4091 172.568 13.3106 172.568 14.2727V15.8182C172.568 17.1364 172.795 18.2538 173.25 19.1705C173.712 20.0795 174.352 20.7727 175.17 21.25C175.989 21.7197 176.939 21.9545 178.023 21.9545C178.727 21.9545 179.364 21.8561 179.932 21.6591C180.508 21.4545 181.004 21.1515 181.42 20.75C181.837 20.3409 182.159 19.8333 182.386 19.2273L184.977 19.9545C184.705 20.8333 184.246 21.6061 183.602 22.2727C182.958 22.9318 182.163 23.447 181.216 23.8182C180.269 24.1818 179.205 24.3636 178.023 24.3636ZM196.92 6.54545V8.81818H187.875V6.54545H196.92ZM190.511 2.36364H193.193V19C193.193 19.7576 193.303 20.3258 193.523 20.7045C193.75 21.0758 194.038 21.3258 194.386 21.4545C194.742 21.5758 195.117 21.6364 195.511 21.6364C195.807 21.6364 196.049 21.6212 196.239 21.5909C196.428 21.553 196.58 21.5227 196.693 21.5L197.239 23.9091C197.057 23.9773 196.803 24.0455 196.477 24.1136C196.152 24.1894 195.739 24.2273 195.239 24.2273C194.481 24.2273 193.739 24.0644 193.011 23.7386C192.292 23.4129 191.693 22.9167 191.216 22.25C190.746 21.5833 190.511 20.7424 190.511 19.7273V2.36364ZM200.955 24V6.54545H203.636V24H200.955ZM202.318 3.63636C201.795 3.63636 201.345 3.45833 200.966 3.10227C200.595 2.74621 200.409 2.31818 200.409 1.81818C200.409 1.31818 200.595 0.890151 200.966 0.53409C201.345 0.17803 201.795 0 202.318 0C202.841 0 203.288 0.17803 203.659 0.53409C204.038 0.890151 204.227 1.31818 204.227 1.81818C204.227 2.31818 204.038 2.74621 203.659 3.10227C203.288 3.45833 202.841 3.63636 202.318 3.63636ZM211.23 13.5V24H208.548V6.54545H211.139V9.27273H211.366C211.776 8.38636 212.397 7.67424 213.23 7.13636C214.063 6.59091 215.139 6.31818 216.457 6.31818C217.639 6.31818 218.673 6.56061 219.56 7.04545C220.446 7.52273 221.135 8.25 221.628 9.22727C222.12 10.197 222.366 11.4242 222.366 12.9091V24H219.685V13.0909C219.685 11.7197 219.329 10.6515 218.616 9.88636C217.904 9.11364 216.927 8.72727 215.685 8.72727C214.829 8.72727 214.063 8.91288 213.389 9.28409C212.723 9.6553 212.196 10.197 211.81 10.9091C211.423 11.6212 211.23 12.4848 211.23 13.5ZM234.312 30.9091C233.017 30.9091 231.903 30.7424 230.972 30.4091C230.04 30.0833 229.263 29.6515 228.642 29.1136C228.028 28.5833 227.54 28.0152 227.176 27.4091L229.312 25.9091C229.555 26.2273 229.862 26.5909 230.233 27C230.604 27.4167 231.112 27.7765 231.756 28.0795C232.407 28.3902 233.259 28.5455 234.312 28.5455C235.722 28.5455 236.884 28.2045 237.801 27.5227C238.718 26.8409 239.176 25.7727 239.176 24.3182V20.7727H238.949C238.752 21.0909 238.472 21.4848 238.108 21.9545C237.752 22.4167 237.237 22.8295 236.562 23.1932C235.896 23.5492 234.994 23.7273 233.858 23.7273C232.449 23.7273 231.184 23.3939 230.062 22.7273C228.949 22.0606 228.066 21.0909 227.415 19.8182C226.771 18.5455 226.449 17 226.449 15.1818C226.449 13.3939 226.763 11.8371 227.392 10.5114C228.021 9.17803 228.896 8.14773 230.017 7.42045C231.138 6.68561 232.434 6.31818 233.903 6.31818C235.04 6.31818 235.941 6.50758 236.608 6.88636C237.282 7.25758 237.797 7.68182 238.153 8.15909C238.517 8.62879 238.797 9.01515 238.994 9.31818H239.267V6.54545H241.858V24.5C241.858 26 241.517 27.2197 240.835 28.1591C240.161 29.1061 239.252 29.7992 238.108 30.2386C236.972 30.6856 235.706 30.9091 234.312 30.9091ZM234.222 21.3182C235.297 21.3182 236.206 21.072 236.949 20.5795C237.691 20.0871 238.256 19.3788 238.642 18.4545C239.028 17.5303 239.222 16.4242 239.222 15.1364C239.222 13.8788 239.032 12.7689 238.653 11.8068C238.275 10.8447 237.714 10.0909 236.972 9.54545C236.229 9 235.313 8.72727 234.222 8.72727C233.085 8.72727 232.138 9.01515 231.381 9.59091C230.631 10.1667 230.066 10.9394 229.688 11.9091C229.316 12.8788 229.131 13.9545 229.131 15.1364C229.131 16.3485 229.32 17.4205 229.699 18.3523C230.085 19.2765 230.653 20.0038 231.403 20.5341C232.161 21.0568 233.1 21.3182 234.222 21.3182Z" fill="#0C0202"/>
</g>
<defs>
<filter id="filter0_d_3_133" x="0.681816" y="0" width="245.176" height="38.9091" filterUnits="userSpaceOnUse" color-interpolation-filters="sRGB">
<feFlood flood-opacity="0" result="BackgroundImageFix"/>
<feColorMatrix in="SourceAlpha" type="matrix" values="0 0 0 0 0 0 0 0 0 0 0 0 0 0 0 0 0 0 127 0" result="hardAlpha"/>
<feOffset dy="4"/>
<feGaussianBlur stdDeviation="2"/>
<feComposite in2="hardAlpha" operator="out"/>
<feColorMatrix type="matrix" values="0 0 0 0 0 0 0 0 0 0 0 0 0 0 0 0 0 0 0.25 0"/>
<feBlend mode="normal" in2="BackgroundImageFix" result="effect1_dropShadow_3_133"/>
<feBlend mode="normal" in="SourceGraphic" in2="effect1_dropShadow_3_133" result="shape"/>
</filter>
</defs>
</svg>
